<svg width="186" height="160" viewBox="0 0 186 160" fill="none" xmlns="http://www.w3.org/2000/svg">
<path d="M9.32818 154H7.73218L2.93018 146.734V154H1.33418V144.256H2.93018L7.73218 151.508V144.256H9.32818V154ZM14.77 154.126C14.042 154.126 13.384 153.963 12.796 153.636C12.208 153.3 11.746 152.833 11.41 152.236C11.074 151.629 10.906 150.929 10.906 150.136C10.906 149.352 11.0787 148.657 11.424 148.05C11.7694 147.443 12.2407 146.977 12.838 146.65C13.4354 146.323 14.1027 146.16 14.84 146.16C15.5774 146.16 16.2447 146.323 16.842 146.65C17.4394 146.977 17.9107 147.443 18.256 148.05C18.6014 148.657 18.774 149.352 18.774 150.136C18.774 150.92 18.5967 151.615 18.242 152.222C17.8874 152.829 17.402 153.3 16.786 153.636C16.1794 153.963 15.5074 154.126 14.77 154.126ZM14.77 152.74C15.1807 152.74 15.5634 152.642 15.918 152.446C16.282 152.25 16.576 151.956 16.8 151.564C17.024 151.172 17.136 150.696 17.136 150.136C17.136 149.576 17.0287 149.105 16.814 148.722C16.5994 148.33 16.3147 148.036 15.96 147.84C15.6054 147.644 15.2227 147.546 14.812 147.546C14.4014 147.546 14.0187 147.644 13.664 147.84C13.3187 148.036 13.0434 148.33 12.838 148.722C12.6327 149.105 12.53 149.576 12.53 150.136C12.53 150.967 12.74 151.611 13.16 152.068C13.5894 152.516 14.126 152.74 14.77 152.74ZM30.2745 144.27V145.572H27.6845V154H26.0885V145.572H23.4845V144.27H30.2745ZM33.4868 147.406C33.7202 147.014 34.0282 146.711 34.4108 146.496C34.8028 146.272 35.2648 146.16 35.7968 146.16V147.812H35.3908C34.7655 147.812 34.2895 147.971 33.9628 148.288C33.6455 148.605 33.4868 149.156 33.4868 149.94V154H31.8908V146.286H33.4868V147.406ZM36.7319 150.108C36.7319 149.333 36.8905 148.647 37.2079 148.05C37.5345 147.453 37.9732 146.991 38.5239 146.664C39.0839 146.328 39.6999 146.16 40.3719 146.16C40.9785 146.16 41.5059 146.281 41.9539 146.524C42.4112 146.757 42.7752 147.051 43.0459 147.406V146.286H44.6559V154H43.0459V152.852C42.7752 153.216 42.4065 153.519 41.9399 153.762C41.4732 154.005 40.9412 154.126 40.3439 154.126C39.6812 154.126 39.0745 153.958 38.5239 153.622C37.9732 153.277 37.5345 152.801 37.2079 152.194C36.8905 151.578 36.7319 150.883 36.7319 150.108ZM43.0459 150.136C43.0459 149.604 42.9339 149.142 42.7099 148.75C42.4952 148.358 42.2105 148.059 41.8559 147.854C41.5012 147.649 41.1185 147.546 40.7079 147.546C40.2972 147.546 39.9145 147.649 39.5599 147.854C39.2052 148.05 38.9159 148.344 38.6919 148.736C38.4772 149.119 38.3699 149.576 38.3699 150.108C38.3699 150.64 38.4772 151.107 38.6919 151.508C38.9159 151.909 39.2052 152.217 39.5599 152.432C39.9239 152.637 40.3065 152.74 40.7079 152.74C41.1185 152.74 41.5012 152.637 41.8559 152.432C42.2105 152.227 42.4952 151.928 42.7099 151.536C42.9339 151.135 43.0459 150.668 43.0459 150.136ZM50.6441 146.16C51.2508 146.16 51.7921 146.286 52.2681 146.538C52.7535 146.79 53.1315 147.163 53.4021 147.658C53.6728 148.153 53.8081 148.75 53.8081 149.45V154H52.2261V149.688C52.2261 148.997 52.0535 148.47 51.7081 148.106C51.3628 147.733 50.8915 147.546 50.2941 147.546C49.6968 147.546 49.2208 147.733 48.8661 148.106C48.5208 148.47 48.3481 148.997 48.3481 149.688V154H46.7521V146.286H48.3481V147.168C48.6095 146.851 48.9408 146.603 49.3421 146.426C49.7528 146.249 50.1868 146.16 50.6441 146.16ZM58.6439 154.126C58.0373 154.126 57.4913 154.019 57.0059 153.804C56.5299 153.58 56.1519 153.281 55.8719 152.908C55.5919 152.525 55.4426 152.101 55.4239 151.634H57.0759C57.1039 151.961 57.2579 152.236 57.5379 152.46C57.8273 152.675 58.1866 152.782 58.6159 152.782C59.0639 152.782 59.4093 152.698 59.6519 152.53C59.9039 152.353 60.0299 152.129 60.0299 151.858C60.0299 151.569 59.8899 151.354 59.6099 151.214C59.3393 151.074 58.9053 150.92 58.3079 150.752C57.7293 150.593 57.2579 150.439 56.8939 150.29C56.5299 150.141 56.2126 149.912 55.9419 149.604C55.6806 149.296 55.5499 148.89 55.5499 148.386C55.5499 147.975 55.6713 147.602 55.9139 147.266C56.1566 146.921 56.5019 146.65 56.9499 146.454C57.4073 146.258 57.9299 146.16 58.5179 146.16C59.3953 146.16 60.0999 146.384 60.6319 146.832C61.1733 147.271 61.4626 147.873 61.4999 148.638H59.9039C59.8759 148.293 59.7359 148.017 59.4839 147.812C59.2319 147.607 58.8913 147.504 58.4619 147.504C58.0419 147.504 57.7199 147.583 57.4959 147.742C57.2719 147.901 57.1599 148.111 57.1599 148.372C57.1599 148.577 57.2346 148.75 57.3839 148.89C57.5333 149.03 57.7153 149.142 57.9299 149.226C58.1446 149.301 58.4619 149.399 58.8819 149.52C59.4419 149.669 59.8993 149.823 60.2539 149.982C60.6179 150.131 60.9306 150.355 61.1919 150.654C61.4533 150.953 61.5886 151.349 61.5979 151.844C61.5979 152.283 61.4766 152.675 61.2339 153.02C60.9913 153.365 60.6459 153.636 60.1979 153.832C59.7593 154.028 59.2413 154.126 58.6439 154.126ZM62.7905 150.108C62.7905 149.333 62.9491 148.647 63.2665 148.05C63.5931 147.453 64.0318 146.991 64.5825 146.664C65.1425 146.328 65.7585 146.16 66.4305 146.16C67.0371 146.16 67.5645 146.281 68.0125 146.524C68.4698 146.757 68.8338 147.051 69.1045 147.406V146.286H70.7145V154H69.1045V152.852C68.8338 153.216 68.4651 153.519 67.9985 153.762C67.5318 154.005 66.9998 154.126 66.4025 154.126C65.7398 154.126 65.1331 153.958 64.5825 153.622C64.0318 153.277 63.5931 152.801 63.2665 152.194C62.9491 151.578 62.7905 150.883 62.7905 150.108ZM69.1045 150.136C69.1045 149.604 68.9925 149.142 68.7685 148.75C68.5538 148.358 68.2691 148.059 67.9145 147.854C67.5598 147.649 67.1771 147.546 66.7665 147.546C66.3558 147.546 65.9731 147.649 65.6185 147.854C65.2638 148.05 64.9745 148.344 64.7505 148.736C64.5358 149.119 64.4285 149.576 64.4285 150.108C64.4285 150.64 64.5358 151.107 64.7505 151.508C64.9745 151.909 65.2638 152.217 65.6185 152.432C65.9825 152.637 66.3651 152.74 66.7665 152.74C67.1771 152.74 67.5598 152.637 67.9145 152.432C68.2691 152.227 68.5538 151.928 68.7685 151.536C68.9925 151.135 69.1045 150.668 69.1045 150.136ZM72.2787 150.136C72.2787 149.343 72.4374 148.647 72.7547 148.05C73.0814 147.443 73.5294 146.977 74.0987 146.65C74.6681 146.323 75.3214 146.16 76.0587 146.16C76.9921 146.16 77.7621 146.384 78.3687 146.832C78.9847 147.271 79.4001 147.901 79.6147 148.722H77.8927C77.7527 148.339 77.5287 148.041 77.2207 147.826C76.9127 147.611 76.5254 147.504 76.0587 147.504C75.4054 147.504 74.8827 147.737 74.4907 148.204C74.1081 148.661 73.9167 149.305 73.9167 150.136C73.9167 150.967 74.1081 151.615 74.4907 152.082C74.8827 152.549 75.4054 152.782 76.0587 152.782C76.9827 152.782 77.5941 152.376 77.8927 151.564H79.6147C79.3907 152.348 78.9707 152.973 78.3547 153.44C77.7387 153.897 76.9734 154.126 76.0587 154.126C75.3214 154.126 74.6681 153.963 74.0987 153.636C73.5294 153.3 73.0814 152.833 72.7547 152.236C72.4374 151.629 72.2787 150.929 72.2787 150.136ZM83.0673 147.588V151.858C83.0673 152.147 83.1326 152.357 83.2633 152.488C83.4033 152.609 83.6366 152.67 83.9633 152.67H84.9433V154H83.6833C82.9646 154 82.4139 153.832 82.0313 153.496C81.6486 153.16 81.4573 152.614 81.4573 151.858V147.588H80.5473V146.286H81.4573V144.368H83.0673V146.286H84.9433V147.588H83.0673ZM87.2263 145.264C86.9369 145.264 86.6943 145.166 86.4983 144.97C86.3023 144.774 86.2043 144.531 86.2043 144.242C86.2043 143.953 86.3023 143.71 86.4983 143.514C86.6943 143.318 86.9369 143.22 87.2263 143.22C87.5063 143.22 87.7443 143.318 87.9403 143.514C88.1363 143.71 88.2343 143.953 88.2343 144.242C88.2343 144.531 88.1363 144.774 87.9403 144.97C87.7443 145.166 87.5063 145.264 87.2263 145.264ZM88.0103 146.286V154H86.4143V146.286H88.0103ZM93.4517 154.126C92.7237 154.126 92.0657 153.963 91.4777 153.636C90.8897 153.3 90.4277 152.833 90.0917 152.236C89.7557 151.629 89.5877 150.929 89.5877 150.136C89.5877 149.352 89.7603 148.657 90.1057 148.05C90.451 147.443 90.9223 146.977 91.5197 146.65C92.117 146.323 92.7843 146.16 93.5217 146.16C94.259 146.16 94.9263 146.323 95.5237 146.65C96.121 146.977 96.5923 147.443 96.9377 148.05C97.283 148.657 97.4557 149.352 97.4557 150.136C97.4557 150.92 97.2783 151.615 96.9237 152.222C96.569 152.829 96.0837 153.3 95.4677 153.636C94.861 153.963 94.189 154.126 93.4517 154.126ZM93.4517 152.74C93.8623 152.74 94.245 152.642 94.5997 152.446C94.9637 152.25 95.2577 151.956 95.4817 151.564C95.7057 151.172 95.8177 150.696 95.8177 150.136C95.8177 149.576 95.7103 149.105 95.4957 148.722C95.281 148.33 94.9963 148.036 94.6417 147.84C94.287 147.644 93.9043 147.546 93.4937 147.546C93.083 147.546 92.7003 147.644 92.3457 147.84C92.0003 148.036 91.725 148.33 91.5197 148.722C91.3143 149.105 91.2117 149.576 91.2117 150.136C91.2117 150.967 91.4217 151.611 91.8417 152.068C92.271 152.516 92.8077 152.74 93.4517 152.74ZM102.925 146.16C103.532 146.16 104.073 146.286 104.549 146.538C105.035 146.79 105.413 147.163 105.683 147.658C105.954 148.153 106.089 148.75 106.089 149.45V154H104.507V149.688C104.507 148.997 104.335 148.47 103.989 148.106C103.644 147.733 103.173 147.546 102.575 147.546C101.978 147.546 101.502 147.733 101.147 148.106C100.802 148.47 100.629 148.997 100.629 149.688V154H99.0334V146.286H100.629V147.168C100.891 146.851 101.222 146.603 101.623 146.426C102.034 146.249 102.468 146.16 102.925 146.16ZM117.628 152.012H113.554L112.854 154H111.188L114.674 144.256H116.522L120.008 154H118.328L117.628 152.012ZM117.18 150.71L115.598 146.188L114.002 150.71H117.18ZM124.506 152.572L126.69 146.286H128.384L125.444 154H123.54L120.614 146.286H122.322L124.506 152.572ZM129.058 150.108C129.058 149.333 129.217 148.647 129.534 148.05C129.861 147.453 130.299 146.991 130.85 146.664C131.41 146.328 132.026 146.16 132.698 146.16C133.305 146.16 133.832 146.281 134.28 146.524C134.737 146.757 135.101 147.051 135.372 147.406V146.286H136.982V154H135.372V152.852C135.101 153.216 134.733 153.519 134.266 153.762C133.799 154.005 133.267 154.126 132.67 154.126C132.007 154.126 131.401 153.958 130.85 153.622C130.299 153.277 129.861 152.801 129.534 152.194C129.217 151.578 129.058 150.883 129.058 150.108ZM135.372 150.136C135.372 149.604 135.26 149.142 135.036 148.75C134.821 148.358 134.537 148.059 134.182 147.854C133.827 147.649 133.445 147.546 133.034 147.546C132.623 147.546 132.241 147.649 131.886 147.854C131.531 148.05 131.242 148.344 131.018 148.736C130.803 149.119 130.696 149.576 130.696 150.108C130.696 150.64 130.803 151.107 131.018 151.508C131.242 151.909 131.531 152.217 131.886 152.432C132.25 152.637 132.633 152.74 133.034 152.74C133.445 152.74 133.827 152.637 134.182 152.432C134.537 152.227 134.821 151.928 135.036 151.536C135.26 151.135 135.372 150.668 135.372 150.136ZM139.89 145.264C139.601 145.264 139.358 145.166 139.162 144.97C138.966 144.774 138.868 144.531 138.868 144.242C138.868 143.953 138.966 143.71 139.162 143.514C139.358 143.318 139.601 143.22 139.89 143.22C140.17 143.22 140.408 143.318 140.604 143.514C140.8 143.71 140.898 143.953 140.898 144.242C140.898 144.531 140.8 144.774 140.604 144.97C140.408 145.166 140.17 145.264 139.89 145.264ZM140.674 146.286V154H139.078V146.286H140.674ZM144.366 143.64V154H142.77V143.64H144.366ZM145.929 150.108C145.929 149.333 146.088 148.647 146.405 148.05C146.732 147.453 147.17 146.991 147.721 146.664C148.281 146.328 148.897 146.16 149.569 146.16C150.176 146.16 150.703 146.281 151.151 146.524C151.608 146.757 151.972 147.051 152.243 147.406V146.286H153.853V154H152.243V152.852C151.972 153.216 151.604 153.519 151.137 153.762C150.67 154.005 150.138 154.126 149.541 154.126C148.878 154.126 148.272 153.958 147.721 153.622C147.17 153.277 146.732 152.801 146.405 152.194C146.088 151.578 145.929 150.883 145.929 150.108ZM152.243 150.136C152.243 149.604 152.131 149.142 151.907 148.75C151.692 148.358 151.408 148.059 151.053 147.854C150.698 147.649 150.316 147.546 149.905 147.546C149.494 147.546 149.112 147.649 148.757 147.854C148.402 148.05 148.113 148.344 147.889 148.736C147.674 149.119 147.567 149.576 147.567 150.108C147.567 150.64 147.674 151.107 147.889 151.508C148.113 151.909 148.402 152.217 148.757 152.432C149.121 152.637 149.504 152.74 149.905 152.74C150.316 152.74 150.698 152.637 151.053 152.432C151.408 152.227 151.692 151.928 151.907 151.536C152.131 151.135 152.243 150.668 152.243 150.136ZM157.545 147.434C157.816 147.061 158.185 146.757 158.651 146.524C159.127 146.281 159.655 146.16 160.233 146.16C160.915 146.16 161.531 146.323 162.081 146.65C162.632 146.977 163.066 147.443 163.383 148.05C163.701 148.647 163.859 149.333 163.859 150.108C163.859 150.883 163.701 151.578 163.383 152.194C163.066 152.801 162.627 153.277 162.067 153.622C161.517 153.958 160.905 154.126 160.233 154.126C159.636 154.126 159.104 154.009 158.637 153.776C158.18 153.543 157.816 153.244 157.545 152.88V154H155.949V143.64H157.545V147.434ZM162.235 150.108C162.235 149.576 162.123 149.119 161.899 148.736C161.685 148.344 161.395 148.05 161.031 147.854C160.677 147.649 160.294 147.546 159.883 147.546C159.482 147.546 159.099 147.649 158.735 147.854C158.381 148.059 158.091 148.358 157.867 148.75C157.653 149.142 157.545 149.604 157.545 150.136C157.545 150.668 157.653 151.135 157.867 151.536C158.091 151.928 158.381 152.227 158.735 152.432C159.099 152.637 159.482 152.74 159.883 152.74C160.294 152.74 160.677 152.637 161.031 152.432C161.395 152.217 161.685 151.909 161.899 151.508C162.123 151.107 162.235 150.64 162.235 150.108ZM167.034 143.64V154H165.438V143.64H167.034ZM176.199 149.954C176.199 150.243 176.18 150.505 176.143 150.738H170.249C170.296 151.354 170.524 151.849 170.935 152.222C171.346 152.595 171.85 152.782 172.447 152.782C173.306 152.782 173.912 152.423 174.267 151.704H175.989C175.756 152.413 175.331 152.997 174.715 153.454C174.108 153.902 173.352 154.126 172.447 154.126C171.71 154.126 171.047 153.963 170.459 153.636C169.88 153.3 169.423 152.833 169.087 152.236C168.76 151.629 168.597 150.929 168.597 150.136C168.597 149.343 168.756 148.647 169.073 148.05C169.4 147.443 169.852 146.977 170.431 146.65C171.019 146.323 171.691 146.16 172.447 146.16C173.175 146.16 173.824 146.319 174.393 146.636C174.962 146.953 175.406 147.401 175.723 147.98C176.04 148.549 176.199 149.207 176.199 149.954ZM174.533 149.45C174.524 148.862 174.314 148.391 173.903 148.036C173.492 147.681 172.984 147.504 172.377 147.504C171.826 147.504 171.355 147.681 170.963 148.036C170.571 148.381 170.338 148.853 170.263 149.45H174.533ZM179.772 144.27L179.59 151.06H178.26L178.078 144.27H179.772ZM178.974 154.098C178.684 154.098 178.442 154 178.246 153.804C178.05 153.608 177.952 153.365 177.952 153.076C177.952 152.787 178.05 152.544 178.246 152.348C178.442 152.152 178.684 152.054 178.974 152.054C179.254 152.054 179.492 152.152 179.688 152.348C179.884 152.544 179.982 152.787 179.982 153.076C179.982 153.365 179.884 153.608 179.688 153.804C179.492 154 179.254 154.098 178.974 154.098ZM184.27 144.27L184.088 151.06H182.758L182.576 144.27H184.27ZM183.472 154.098C183.182 154.098 182.94 154 182.744 153.804C182.548 153.608 182.45 153.365 182.45 153.076C182.45 152.787 182.548 152.544 182.744 152.348C182.94 152.152 183.182 152.054 183.472 152.054C183.752 152.054 183.99 152.152 184.186 152.348C184.382 152.544 184.48 152.787 184.48 153.076C184.48 153.365 184.382 153.608 184.186 153.804C183.99 154 183.752 154.098 183.472 154.098Z" fill="black" fill-opacity="0.5"/>
<path d="M43.7403 35.6003L11.0244 57.4551L43.2494 105.562L75.9653 83.7075L43.7403 35.6003Z" fill="#F5F5F5"/>
<path d="M59.0592 81.4319L58.6888 83.7264L42.4243 81.3853L42.7946 79.0908L59.0592 81.4319Z" fill="#E0E0E0"/>
<path d="M50.8686 73.2471L53.2012 73.5819L50.6149 89.5736L48.2793 89.2359L50.8686 73.2471Z" fill="#E0E0E0"/>
<path d="M35.9018 52.9223C35.9251 52.9543 32.6478 55.1877 28.5802 57.9015C24.5126 60.6153 21.1973 62.7934 21.174 62.7584C21.1506 62.7235 24.428 60.493 28.4956 57.7763C32.5632 55.0596 35.8639 52.8873 35.9018 52.9223Z" fill="#E0E0E0"/>
<path d="M47.921 49.9058C47.9444 49.9407 42.4917 53.6213 35.7445 58.1288C28.9973 62.6363 23.498 66.2615 23.4805 66.2294C23.463 66.1974 28.904 62.511 35.6599 58.0035C42.4159 53.496 47.8977 49.8708 47.921 49.9058Z" fill="#E0E0E0"/>
<path d="M50.3322 53.5046C50.3555 53.5396 44.9029 57.223 38.1556 61.7305C31.4084 66.238 25.9091 69.8633 25.8916 69.8283C25.8741 69.7934 31.3209 66.1128 38.0711 61.6024C44.8212 57.092 50.3088 53.4697 50.3322 53.5046Z" fill="#E0E0E0"/>
<path d="M52.7433 57.1067C52.7667 57.1416 47.314 60.8251 40.5668 65.3297C33.8196 69.8343 28.3203 73.4653 28.3203 73.4304C28.3203 73.3954 33.7467 69.712 40.4968 65.2045C47.247 60.697 52.72 57.0718 52.7433 57.1067Z" fill="#E0E0E0"/>
<path d="M55.1461 60.7085C55.1694 60.7434 49.7168 64.424 42.9696 68.9315C36.2224 73.439 30.7231 77.0642 30.7085 77.0293C30.6939 76.9943 36.1436 73.3138 42.8996 68.8063C49.6556 64.2988 55.1461 60.6736 55.1461 60.7085Z" fill="#E0E0E0"/>
<path d="M153.138 67.8352L125.662 86.1897L152.725 126.591L180.201 108.236L153.138 67.8352Z" fill="#F5F5F5"/>
<path d="M166.006 106.334L165.694 108.262L152.033 106.296L152.348 104.368L166.006 106.334Z" fill="#E0E0E0"/>
<path d="M159.127 99.4592L161.087 99.7417L158.914 113.171L156.952 112.889L159.127 99.4592Z" fill="#E0E0E0"/>
<path d="M146.546 82.4045C146.569 82.4395 143.82 84.3176 140.402 86.5976C136.985 88.8775 134.197 90.7003 134.174 90.6741C134.151 90.6479 136.903 88.764 140.318 86.4811C143.732 84.1982 146.523 82.355 146.546 82.4045Z" fill="#E0E0E0"/>
<path d="M156.649 79.8567C156.673 79.8917 152.098 82.9899 146.444 86.7723C140.79 90.5548 136.163 93.6005 136.139 93.5656C136.116 93.5307 140.691 90.4325 146.345 86.6471C151.998 82.8617 156.617 79.8218 156.649 79.8567Z" fill="#E0E0E0"/>
<path d="M158.676 82.8789C158.699 82.9139 154.124 86.012 148.47 89.7974C142.816 93.5828 138.189 96.6227 138.166 96.5878C138.142 96.5528 142.703 93.4692 148.371 89.6838C154.039 85.8985 158.658 82.8469 158.676 82.8789Z" fill="#E0E0E0"/>
<path d="M160.7 85.8986C160.723 85.9336 156.145 89.0318 150.494 92.8171C144.843 96.6025 140.213 99.6424 140.19 99.6075C140.166 99.5726 144.741 96.4773 150.395 92.689C156.049 88.9007 160.679 85.8695 160.7 85.8986Z" fill="#E0E0E0"/>
<path d="M162.741 88.93C162.764 88.9649 158.189 92.0602 152.535 95.8456C146.881 99.6309 142.254 102.671 142.231 102.639C142.207 102.607 146.782 99.5057 152.436 95.7204C158.09 91.935 162.703 88.895 162.741 88.93Z" fill="#E0E0E0"/>
<path d="M109.67 37.3703L79.6899 21.3577L56.0793 65.4414L86.0593 81.4541L109.67 37.3703Z" fill="#F5F5F5"/>
<path d="M80.928 67.6619L79.0269 68.3112L74.1982 54.9838L76.1023 54.3315L80.928 67.6619Z" fill="#E0E0E0"/>
<path d="M83.8438 58.0996L84.5377 60.0127L71.2823 64.5464L70.5884 62.6333L83.8438 58.0996Z" fill="#E0E0E0"/>
<path d="M93.2617 38.4362C93.2384 38.4798 90.2001 36.9016 86.4707 34.9129C82.7414 32.9241 79.741 31.2731 79.7643 31.2294C79.7876 31.1857 82.8288 32.7639 86.5582 34.7527C90.2875 36.7415 93.285 38.3896 93.2617 38.4362Z" fill="#E0E0E0"/>
<path d="M100.458 46.3646C100.435 46.4083 95.4021 43.7644 89.2176 40.4624C83.0331 37.1604 78.0412 34.4466 78.0645 34.4029C78.0879 34.3592 83.1177 37.0002 89.3022 40.3051C95.4866 43.6101 100.481 46.321 100.458 46.3646Z" fill="#E0E0E0"/>
<path d="M98.691 49.664C98.6677 49.7076 93.635 47.0666 87.4505 43.7617C81.266 40.4568 76.2741 37.7459 76.2974 37.7022C76.3208 37.6585 81.3506 40.3025 87.5351 43.6045C93.7195 46.9065 98.7144 49.6203 98.691 49.664Z" fill="#E0E0E0"/>
<path d="M96.924 52.9633C96.9006 53.0069 91.8679 50.3659 85.6834 47.0639C79.4989 43.7619 74.507 41.0568 74.5304 41.0044C74.5537 40.952 79.5835 43.6018 85.768 46.9038C91.9524 50.2058 96.9473 52.9196 96.924 52.9633Z" fill="#E0E0E0"/>
<path d="M95.1574 56.2621C95.134 56.3058 90.1013 53.6648 83.9168 50.3628C77.7324 47.0608 72.7375 44.3469 72.7638 44.3033C72.79 44.2596 77.8169 46.9006 84.0014 50.2026C90.1859 53.5046 95.1807 56.2184 95.1574 56.2621Z" fill="#E0E0E0"/>
<path opacity="0.2" d="M95.3119 0H94.5596V12.8062H95.3119V0Z" fill="black"/>
<path d="M77.373 28.3H112.497C112.497 28.3 109.255 12.812 94.6698 12.812C81.6972 12.812 77.373 28.3 77.373 28.3Z" fill="#C6C4C3"/>
<path d="M95.3114 0H94.5591V12.8062H95.3114V0Z" fill="#C6C4C3"/>
<path d="M173.141 128.071C173.141 128.112 135.454 128.147 88.9726 128.147C42.4913 128.147 4.79834 128.121 4.79834 128.071C4.79834 128.021 42.4796 127.995 88.9726 127.995C135.466 127.995 173.141 128.027 173.141 128.071Z" fill="#263238"/>
<path d="M14.1179 109.834C14.6108 109.869 15.0916 110.004 15.5314 110.229C15.9713 110.454 16.3612 110.765 16.678 111.144C17.3077 111.907 17.7537 112.803 17.9813 113.765C18.4741 115.605 18.1709 117.78 17.646 119.612C15.6516 118.898 14.4182 116.773 13.8554 115.655C12.9807 113.89 12.4587 110.163 14.1091 109.831" fill="#C6C4C3"/>
<path d="M20.5178 121.845C20.2183 121.381 20.047 120.846 20.0214 120.295C19.9958 119.744 20.1168 119.196 20.372 118.706C20.6352 118.221 20.9925 117.793 21.4231 117.448C21.8536 117.103 22.3488 116.846 22.8796 116.694C23.3665 116.543 23.9322 116.481 24.355 116.764C24.5456 116.908 24.694 117.1 24.7848 117.321C24.8756 117.542 24.9054 117.783 24.8711 118.019C24.7946 118.492 24.5933 118.936 24.288 119.306C23.317 120.619 22.139 121.711 20.4974 121.845" fill="#C6C4C3"/>
<path d="M20.7394 127.998C20.6961 127.874 20.6659 127.746 20.649 127.616C20.5965 127.343 20.5266 126.99 20.442 126.568C20.1803 125.412 20.1074 124.221 20.2262 123.042C20.3637 121.857 20.8157 120.73 21.5354 119.778C21.7553 119.493 22.0089 119.236 22.2906 119.012C22.3672 118.951 22.447 118.895 22.5297 118.843C22.556 118.821 22.5855 118.804 22.6172 118.791C22.2484 119.105 21.9114 119.456 21.6112 119.836C20.9295 120.789 20.5001 121.899 20.3633 123.062C20.1767 124.419 20.407 125.663 20.5411 126.557C20.6111 127.002 20.6694 127.363 20.7015 127.614C20.7245 127.74 20.7372 127.869 20.7394 127.998Z" fill="#263238"/>
<path d="M14.7593 112.638C14.7926 112.684 14.82 112.734 14.8409 112.786C14.8934 112.903 14.9634 113.049 15.045 113.232C15.2229 113.619 15.4707 114.181 15.7711 114.877C16.3717 116.272 17.1765 118.211 18.0163 120.372C18.856 122.532 19.5704 124.504 20.0573 125.939C20.3081 126.655 20.5035 127.238 20.6405 127.643C20.7017 127.835 20.7484 127.989 20.7863 128.108C20.8071 128.162 20.8218 128.218 20.83 128.274C20.8005 128.225 20.777 128.172 20.7601 128.117C20.7163 128.001 20.6609 127.849 20.588 127.66L19.9728 125.971C19.4509 124.547 18.7219 122.579 17.8851 120.421C17.0482 118.264 16.2551 116.318 15.6778 114.915C15.3862 114.225 15.1617 113.663 14.9955 113.252C14.9196 113.066 14.8584 112.917 14.8118 112.798C14.7899 112.746 14.7723 112.693 14.7593 112.638Z" fill="#263238"/>
<path d="M18.3689 123.927C17.7689 122.929 16.9398 122.089 15.9501 121.475C14.9604 120.86 13.8385 120.49 12.6772 120.395C12.094 120.354 11.3767 120.453 11.1143 120.977C10.8519 121.501 11.2018 122.142 11.6042 122.567C12.4591 123.46 13.5597 124.081 14.7672 124.35C15.9747 124.62 17.235 124.526 18.3893 124.081" fill="#C6C4C3"/>
<path d="M13.5752 121.973C13.6988 121.967 13.8228 121.972 13.9455 121.988C14.0893 121.995 14.2324 122.012 14.3741 122.037C14.5403 122.069 14.7357 122.087 14.9398 122.145C15.168 122.193 15.3929 122.255 15.6134 122.331C15.8688 122.413 16.119 122.51 16.3627 122.622C16.9233 122.873 17.4535 123.187 17.9431 123.557C18.4271 123.936 18.8654 124.37 19.2494 124.85C19.4152 125.059 19.5681 125.278 19.7072 125.505C19.8329 125.701 19.9478 125.905 20.0513 126.114C20.1389 126.284 20.2168 126.459 20.2845 126.638C20.343 126.77 20.3927 126.906 20.4332 127.045C20.4764 127.162 20.5087 127.281 20.5295 127.404C20.4974 127.404 20.3574 126.903 19.9638 126.157C19.8566 125.957 19.7388 125.763 19.611 125.575C19.4689 125.354 19.3151 125.141 19.1503 124.937C18.3876 123.996 17.415 123.246 16.3103 122.748C16.0566 122.637 15.8146 122.532 15.5784 122.456C15.3616 122.377 15.1406 122.31 14.9165 122.255C14.1001 122.031 13.5723 122.005 13.5752 121.973Z" fill="#263238"/>
<path d="M145.933 30.7141C145.076 30.9091 144.659 31.8963 144.578 32.7698C144.496 33.6433 144.607 34.5693 144.239 35.3671C143.825 36.264 142.837 36.9279 142.805 37.915C142.784 38.5177 143.143 39.0797 143.125 39.6883C143.096 40.6783 142.087 41.4354 142.032 42.4138C141.994 43.1272 142.469 43.8085 142.356 44.5132C142.268 45.0606 141.84 45.4915 141.659 46.0157C141.3 47.0639 142.02 48.2141 142.956 48.8023C143.481 49.1315 144.071 49.3424 144.685 49.4203C145.3 49.4981 145.924 49.4411 146.514 49.2531C147.104 49.0651 147.646 48.7506 148.102 48.3318C148.557 47.9129 148.916 47.3997 149.152 46.8281C149.671 45.5702 149.558 44.1521 149.444 42.7981C149.094 38.574 148.834 34.3441 148.663 30.1084" fill="#263238"/>
<path d="M143.443 45.6166C143.62 45.5071 143.757 45.3452 143.837 45.1536C143.921 44.9257 143.955 44.6824 143.936 44.4402C143.904 44.1191 143.833 43.8033 143.723 43.4997C143.584 43.1181 143.532 42.7101 143.572 42.3058C143.645 41.8516 143.971 41.4789 144.266 41.112C144.424 40.9324 144.557 40.7315 144.659 40.5151C144.762 40.2962 144.779 40.0468 144.706 39.8162C144.554 39.3416 144.088 38.9922 143.875 38.4419C143.775 38.1694 143.759 37.8733 143.828 37.5916C143.894 37.3275 143.992 37.0723 144.12 36.8316C144.366 36.3982 144.562 35.938 144.703 35.4601C144.907 34.5371 144.811 33.6548 144.951 32.9298C145.028 32.3491 145.286 31.8073 145.689 31.3807C145.802 31.2658 145.932 31.1677 146.073 31.0895C146.122 31.0641 146.174 31.0455 146.228 31.0342C146.045 31.1346 145.877 31.2601 145.729 31.4069C145.357 31.8378 145.122 32.3703 145.056 32.9356C145.005 33.3218 144.977 33.7108 144.974 34.1003C144.973 34.5588 144.928 35.0161 144.84 35.466C144.701 35.9548 144.505 36.4259 144.257 36.8695C144.038 37.3266 143.837 37.8624 144.029 38.3632C144.222 38.8641 144.686 39.2106 144.863 39.7463C144.944 40.011 144.924 40.296 144.808 40.5471C144.694 40.7853 144.547 41.0059 144.371 41.2023C144.079 41.5691 143.761 41.9186 143.691 42.3262C143.65 42.7129 143.696 43.1038 143.825 43.4706C143.929 43.7836 143.994 44.1083 144.018 44.4373C144.032 44.6907 143.987 44.9439 143.887 45.1769C143.824 45.323 143.723 45.4496 143.595 45.5438C143.549 45.5771 143.498 45.6018 143.443 45.6166Z" fill="#455A64"/>
<path d="M141.163 52.5205L138.539 60.0912L127.564 60.6736L125.732 64.7502L137.192 65.9149C137.733 66.1368 138.314 66.2469 138.899 66.2384C139.484 66.2299 140.062 66.103 140.596 65.8654C141.131 65.6278 141.612 65.2845 142.01 64.856C142.408 64.4276 142.715 63.9231 142.913 63.3729L145.971 54.8471L141.163 52.5205Z" fill="#F9D0C0"/>
<path d="M163.851 123.956C163.851 123.956 155.809 98.4427 155.637 97.6157C155.483 96.8644 158.553 78.5054 158.944 73.7388L148.077 74.1435V74.2512L143.458 74.5075L147.593 126.664H152.593L152.098 109.353C155.183 117.62 159.603 126.047 159.603 126.047L163.851 123.956Z" fill="#F9D0C0"/>
<path d="M152.302 115.564C152.302 115.407 152.24 109.764 152.24 109.764C152.179 110.102 150.325 104.866 150.368 104.549C150.392 104.383 152.302 115.564 152.302 115.564Z" fill="#D3A897"/>
<path d="M150.158 102.068C150.133 102.172 150.122 102.279 150.126 102.386C150.11 102.676 150.11 102.968 150.126 103.259C150.126 103.442 150.153 103.641 150.176 103.856C150.199 104.071 150.231 104.299 150.281 104.534C150.385 105.049 150.522 105.557 150.692 106.054C151.054 107.111 151.456 108.034 151.739 108.704C151.873 108.995 151.99 109.272 152.089 109.493C152.124 109.596 152.173 109.694 152.234 109.784C152.219 109.684 152.189 109.586 152.147 109.493C152.08 109.301 151.978 109.024 151.855 108.684C151.599 108.002 151.214 107.071 150.855 106.025C150.686 105.535 150.546 105.036 150.438 104.529C150.386 104.296 150.351 104.071 150.319 103.862C150.287 103.652 150.263 103.454 150.249 103.279C150.214 102.918 150.199 102.627 150.191 102.423C150.196 102.304 150.185 102.185 150.158 102.068Z" fill="#D3A897"/>
<path d="M147.499 126.929V126.461L152.622 126.236L152.637 128.173L152.322 128.193C150.914 128.275 145.163 128.513 144.225 128.231C143.172 127.916 147.499 126.929 147.499 126.929Z" fill="#455A64"/>
<path d="M152.704 128.056C152.675 128.058 152.646 128.058 152.617 128.056L152.366 128.074L151.439 128.115C150.657 128.147 149.575 128.176 148.383 128.182C147.19 128.188 146.106 128.167 145.321 128.144L144.397 128.106H144.143H144.056C144.085 128.104 144.114 128.104 144.143 128.106H144.397L145.324 128.124C146.106 128.124 147.187 128.147 148.38 128.141C149.572 128.135 150.657 128.115 151.439 128.094L152.366 128.071H152.704V128.056Z" fill="#263238"/>
<path d="M145.829 128.219C145.786 128.067 145.728 127.92 145.654 127.78C145.561 127.651 145.455 127.532 145.336 127.427C145.495 127.484 145.627 127.598 145.706 127.748C145.803 127.885 145.846 128.052 145.829 128.219Z" fill="#263238"/>
<path d="M147.339 127.453C147.339 127.453 147.254 127.374 147.178 127.258C147.103 127.142 147.056 127.04 147.071 127.031C147.085 127.022 147.155 127.107 147.231 127.223C147.307 127.34 147.353 127.444 147.339 127.453Z" fill="#263238"/>
<path d="M147.753 127.247C147.753 127.261 147.66 127.206 147.572 127.127C147.485 127.049 147.421 126.976 147.433 126.964C147.444 126.953 147.526 127.005 147.613 127.084C147.701 127.162 147.765 127.221 147.753 127.247Z" fill="#263238"/>
<path d="M148.013 126.752C147.927 126.783 147.835 126.795 147.744 126.787C147.655 126.799 147.564 126.79 147.479 126.761C147.564 126.729 147.654 126.717 147.744 126.725C147.835 126.713 147.926 126.722 148.013 126.752Z" fill="#263238"/>
<path d="M148.1 126.414C148.013 126.47 147.912 126.501 147.809 126.502C147.71 126.515 147.609 126.501 147.517 126.461C147.613 126.444 147.711 126.437 147.809 126.437C147.905 126.42 148.003 126.412 148.1 126.414Z" fill="#263238"/>
<path d="M147.167 127.008C147.058 127.028 146.946 127.028 146.837 127.008C146.72 126.994 146.603 126.968 146.49 126.932C146.42 126.913 146.353 126.885 146.289 126.851C146.25 126.828 146.221 126.792 146.208 126.749C146.202 126.724 146.204 126.699 146.213 126.676C146.222 126.653 146.237 126.632 146.257 126.618C146.338 126.579 146.426 126.558 146.516 126.557C146.606 126.556 146.695 126.575 146.776 126.613C146.857 126.651 146.93 126.706 146.987 126.775C147.045 126.843 147.086 126.924 147.109 127.011C147.114 127.04 147.114 127.069 147.109 127.098C147.076 126.993 147.024 126.894 146.957 126.807C146.879 126.72 146.778 126.657 146.665 126.626C146.536 126.585 146.396 126.595 146.275 126.656C146.225 126.693 146.246 126.755 146.301 126.789C146.36 126.822 146.423 126.848 146.488 126.868C146.597 126.904 146.709 126.932 146.823 126.953C147.042 126.999 147.167 126.999 147.167 127.008Z" fill="#263238"/>
<path d="M147.082 127.025C147.04 126.958 147.025 126.876 147.042 126.798C147.052 126.713 147.083 126.631 147.132 126.56C147.159 126.511 147.199 126.47 147.246 126.44C147.293 126.411 147.347 126.394 147.403 126.391C147.436 126.398 147.465 126.418 147.484 126.446C147.503 126.474 147.511 126.509 147.505 126.542C147.498 126.594 147.479 126.644 147.45 126.688C147.406 126.76 147.354 126.827 147.295 126.889C147.245 126.947 147.181 126.992 147.109 127.02C147.109 127.02 147.173 126.961 147.263 126.857C147.316 126.796 147.362 126.731 147.4 126.661C147.444 126.592 147.476 126.466 147.4 126.452C147.325 126.437 147.237 126.527 147.187 126.592C147.141 126.655 147.109 126.727 147.094 126.804C147.082 126.877 147.078 126.951 147.082 127.025Z" fill="#263238"/>
<path d="M152.596 126.664C152.596 126.664 152.45 126.664 152.22 126.679C151.92 126.715 151.636 126.834 151.401 127.023C151.165 127.212 150.987 127.463 150.888 127.748C150.812 127.966 150.806 128.114 150.794 128.111C150.783 128.109 150.794 128.074 150.794 128.01C150.802 127.916 150.819 127.823 150.847 127.733C150.94 127.435 151.118 127.171 151.36 126.973C151.605 126.779 151.902 126.662 152.214 126.638C152.311 126.626 152.409 126.626 152.506 126.638C152.537 126.643 152.567 126.652 152.596 126.664Z" fill="#263238"/>
<path d="M150.144 127.648C149.899 127.706 149.648 127.73 149.397 127.722C149.148 127.734 148.898 127.712 148.654 127.657C148.654 127.64 148.986 127.657 149.397 127.657C149.808 127.657 150.141 127.631 150.144 127.648Z" fill="#263238"/>
<path d="M151.142 127.64C151.142 127.64 151.115 127.71 151.08 127.785C151.045 127.861 151.027 127.931 151.01 127.928C150.992 127.925 150.983 127.849 151.024 127.759C151.065 127.669 151.13 127.625 151.142 127.64Z" fill="#263238"/>
<path d="M151.518 127.171C151.518 127.171 151.498 127.235 151.445 127.287C151.392 127.34 151.34 127.375 151.325 127.363C151.31 127.352 151.346 127.299 151.398 127.244C151.451 127.188 151.504 127.156 151.518 127.171Z" fill="#263238"/>
<path d="M152.054 126.956C152.054 126.973 151.984 126.973 151.908 127C151.833 127.026 151.78 127.067 151.765 127.055C151.751 127.043 151.795 126.973 151.888 126.941C151.981 126.909 152.06 126.938 152.054 126.956Z" fill="#263238"/>
<path d="M152.437 126.851C152.437 126.868 152.416 126.895 152.372 126.909C152.328 126.924 152.29 126.927 152.284 126.909C152.279 126.892 152.308 126.865 152.349 126.851C152.39 126.836 152.431 126.836 152.437 126.851Z" fill="#263238"/>
<path d="M159.501 126.478L159.308 126.05L163.889 123.752L164.697 125.499L164.405 125.648C163.154 126.297 158.008 128.865 157.034 128.993C155.958 129.148 159.501 126.478 159.501 126.478Z" fill="#455A64"/>
<path d="M164.715 125.374L164.639 125.421L164.414 125.537L163.586 125.957C162.886 126.303 161.912 126.772 160.825 127.267C159.737 127.762 158.74 128.184 158.017 128.484L157.157 128.831L156.923 128.921C156.897 128.933 156.868 128.942 156.839 128.947L156.918 128.909L157.148 128.807L157.999 128.443C158.72 128.135 159.711 127.704 160.799 127.209C161.886 126.714 162.863 126.254 163.569 125.916L164.403 125.517L164.633 125.409L164.715 125.374Z" fill="#263238"/>
<path d="M158.518 128.335C158.417 128.213 158.303 128.101 158.177 128.004C158.04 127.923 157.895 127.858 157.743 127.811C157.91 127.809 158.074 127.858 158.213 127.952C158.352 128.046 158.458 128.179 158.518 128.335Z" fill="#263238"/>
<path d="M159.571 127.019C159.571 127.019 159.46 126.984 159.343 126.909C159.227 126.833 159.142 126.76 159.151 126.746C159.16 126.731 159.262 126.781 159.378 126.856C159.495 126.932 159.58 127.005 159.571 127.019Z" fill="#263238"/>
<path d="M159.857 126.665C159.857 126.68 159.757 126.665 159.644 126.63C159.53 126.595 159.445 126.551 159.448 126.533C159.522 126.526 159.596 126.538 159.664 126.568C159.775 126.595 159.862 126.636 159.857 126.665Z" fill="#263238"/>
<path d="M159.898 126.105C159.898 126.122 159.801 126.184 159.667 126.248C159.59 126.294 159.503 126.323 159.414 126.332C159.414 126.315 159.51 126.253 159.641 126.189C159.719 126.143 159.807 126.114 159.898 126.105Z" fill="#263238"/>
<path d="M159.839 125.761C159.839 125.761 159.755 125.878 159.603 125.962C159.517 126.021 159.415 126.051 159.312 126.05C159.395 125.994 159.484 125.946 159.577 125.907C159.72 125.828 159.825 125.747 159.839 125.761Z" fill="#263238"/>
<path d="M159.242 126.688C159.153 126.748 159.054 126.794 158.95 126.821C158.836 126.855 158.719 126.879 158.6 126.894C158.529 126.903 158.456 126.903 158.384 126.894C158.339 126.891 158.298 126.87 158.268 126.836C158.254 126.815 158.247 126.791 158.247 126.766C158.247 126.741 158.254 126.717 158.268 126.696C158.356 126.589 158.48 126.516 158.616 126.489C158.753 126.463 158.895 126.484 159.017 126.551C159.09 126.589 159.153 126.641 159.204 126.705C159.239 126.752 159.253 126.781 159.25 126.784C159.179 126.704 159.093 126.637 158.997 126.589C158.894 126.54 158.78 126.523 158.667 126.539C158.6 126.546 158.536 126.566 158.477 126.598C158.418 126.63 158.365 126.673 158.323 126.725C158.291 126.781 158.323 126.827 158.402 126.836C158.469 126.842 158.536 126.842 158.603 126.836C158.719 126.824 158.834 126.804 158.947 126.775C159.113 126.728 159.242 126.679 159.242 126.688Z" fill="#263238"/>
<path d="M159.16 126.737C159.095 126.691 159.049 126.622 159.031 126.545C159.006 126.463 159 126.376 159.014 126.291C159.019 126.235 159.038 126.182 159.07 126.135C159.101 126.089 159.144 126.051 159.195 126.026C159.268 126.003 159.437 126.152 159.448 126.207C159.46 126.262 159.364 126.233 159.358 126.28C159.348 126.362 159.329 126.444 159.3 126.521C159.278 126.596 159.238 126.664 159.183 126.719C159.183 126.719 159.218 126.641 159.259 126.51C159.28 126.432 159.294 126.354 159.302 126.274C159.302 126.192 159.302 126.067 159.209 126.088C159.116 126.108 159.09 126.221 159.069 126.303C159.051 126.379 159.051 126.457 159.069 126.533C159.093 126.603 159.124 126.672 159.16 126.737Z" fill="#263238"/>
<path d="M164.044 124.148C164.044 124.148 163.904 124.198 163.706 124.317C163.446 124.472 163.235 124.696 163.096 124.964C162.961 125.234 162.904 125.536 162.93 125.837C162.948 126.07 163.003 126.204 162.991 126.21C162.972 126.181 162.958 126.15 162.948 126.117C162.919 126.028 162.898 125.936 162.886 125.843C162.845 125.533 162.898 125.218 163.041 124.939C163.183 124.66 163.407 124.431 163.682 124.282C163.765 124.237 163.852 124.2 163.942 124.172C163.975 124.159 164.009 124.151 164.044 124.148Z" fill="#263238"/>
<path d="M162.21 126.053C161.799 126.338 161.339 126.547 160.854 126.67C160.854 126.653 161.16 126.536 161.533 126.379C161.907 126.222 162.201 126.038 162.21 126.053Z" fill="#263238"/>
<path d="M163.117 125.636C163.131 125.636 163.117 125.709 163.117 125.793C163.117 125.878 163.117 125.948 163.117 125.954C163.117 125.959 163.058 125.89 163.058 125.793C163.058 125.697 163.102 125.627 163.117 125.636Z" fill="#263238"/>
<path d="M163.266 125.054C163.28 125.054 163.266 125.121 163.248 125.191C163.231 125.261 163.187 125.313 163.172 125.307C163.157 125.301 163.172 125.24 163.19 125.17C163.207 125.1 163.248 125.048 163.266 125.054Z" fill="#263238"/>
<path d="M163.668 124.626C163.668 124.644 163.609 124.67 163.551 124.725C163.493 124.78 163.461 124.839 163.446 124.833C163.432 124.827 163.446 124.745 163.51 124.679C163.574 124.612 163.665 124.626 163.668 124.626Z" fill="#263238"/>
<path d="M163.975 124.387C163.975 124.387 163.975 124.434 163.939 124.466C163.904 124.498 163.872 124.516 163.86 124.504C163.849 124.493 163.86 124.457 163.895 124.425C163.931 124.393 163.963 124.375 163.975 124.387Z" fill="#263238"/>
<path d="M158.238 65.12L157.387 54.7248L161.761 54.8034C161.761 54.8034 161.962 53.2689 161.317 49.9086C160.921 47.847 159.548 46.5833 158.005 45.8321V45.8029L157.871 45.768C156.601 45.1987 155.245 44.8454 153.859 44.7227L148.479 44.7838C148.479 44.7838 144.371 44.2597 142.105 47.1977C141.23 48.3246 138.516 56.038 138.516 56.038L144.974 59.142L144.371 54.8645C144.371 54.8645 144.493 57.9656 144.89 58.9411C145.108 59.4885 145.764 61.189 145.764 61.189L145.68 66.3196L158.238 65.12Z" fill="#C6C4C3"/>
<path d="M155.273 53.2164L154.474 56.6115H162.006L161.51 50.916L155.273 53.2164Z" fill="#C6C4C3"/>
<path d="M162.006 56.6115C161.677 56.551 161.343 56.5179 161.008 56.5125C160.39 56.4776 159.551 56.4455 158.594 56.4514C157.638 56.4572 156.795 56.498 156.177 56.5446C155.843 56.5562 155.51 56.5971 155.183 56.6668C155.516 56.6934 155.852 56.6934 156.186 56.6668C156.801 56.6465 157.644 56.6232 158.594 56.6203C159.545 56.6173 160.387 56.6203 161.006 56.6348C161.339 56.6535 161.673 56.6457 162.006 56.6115Z" fill="#263238"/>
<path d="M154.947 50.8901C154.911 51.1799 154.903 51.4724 154.923 51.7637C154.923 52.2965 154.947 53.0303 154.979 53.8427C155.011 54.6551 155.049 55.3918 155.084 55.9218C155.085 56.2153 155.116 56.508 155.177 56.7953C155.213 56.5055 155.22 56.213 155.2 55.9218C155.2 55.3889 155.177 54.6522 155.145 53.8398C155.113 53.0274 155.075 52.2936 155.04 51.7608C155.039 51.4681 155.007 51.1764 154.947 50.8901Z" fill="#263238"/>
<g opacity="0.3">
<path opacity="0.3" d="M148.094 53.8308C148.094 53.8308 149.767 66.2264 154.474 65.8974C154.474 65.8974 156.593 65.8741 157.273 64.4677V63.9144L148.094 53.8308Z" fill="black"/>
</g>
<g opacity="0.3">
<path opacity="0.3" d="M154.946 51.6208L154.045 57.6978L154.629 58.7635L155.591 56.6787L155.183 56.667L154.946 51.6208Z" fill="black"/>
</g>
<path d="M145.738 61.1949C145.683 61.1042 145.639 61.0062 145.61 60.9037C145.537 60.7145 145.441 60.4378 145.319 60.0913C145.027 59.1884 144.786 58.2697 144.598 57.3397C144.411 56.409 144.292 55.466 144.243 54.5181C144.225 54.1541 144.219 53.86 144.225 53.6446C144.218 53.5393 144.224 53.4335 144.246 53.3301C144.269 53.3301 144.286 53.7785 144.348 54.4948C144.43 55.4341 144.563 56.3683 144.747 57.2931C144.963 58.3763 145.222 59.3459 145.421 60.0418C145.514 60.365 145.593 60.6417 145.657 60.8688C145.697 60.9739 145.724 61.0834 145.738 61.1949Z" fill="#263238"/>
<path d="M147.639 64.7559C147.599 64.7559 147.482 64.5026 147.38 64.1736C147.292 63.9719 147.253 63.7525 147.266 63.533C147.395 63.7109 147.483 63.9145 147.526 64.1299C147.609 64.3276 147.648 64.5414 147.639 64.7559Z" fill="#263238"/>
<path d="M148.29 64.7096C148.069 64.1254 148.06 63.4828 148.264 62.8926C148.287 63.195 148.287 63.4987 148.264 63.8011C148.296 64.1028 148.305 64.4065 148.29 64.7096Z" fill="#263238"/>
<path d="M145.105 59.2848C145.085 59.3197 143.583 58.6093 141.749 57.6949C139.915 56.7806 138.443 56.0061 138.46 55.9682C138.478 55.9304 139.982 56.6438 141.816 57.5581C143.65 58.4724 145.123 59.2469 145.105 59.2848Z" fill="#263238"/>
<path d="M147.753 45.7883C147.785 44.3149 147.794 42.7659 147.794 42.7659C147.794 42.7659 145.901 42.4019 145.572 39.9152C145.257 37.545 146.138 31.9805 146.138 31.9805C148.902 30.938 151.774 31.8844 153.666 34.1207L153.197 46.0795C153.141 47.4684 151.902 48.5283 150.415 48.4585C148.911 48.3857 147.721 47.1918 147.753 45.7883Z" fill="#F9D0C0"/>
<path d="M145.992 36.4268C145.989 36.5084 146.018 36.588 146.072 36.6491C146.126 36.7103 146.202 36.7485 146.283 36.7559C146.325 36.7598 146.367 36.7554 146.406 36.7427C146.446 36.7301 146.482 36.7095 146.514 36.6822C146.545 36.655 146.571 36.6217 146.589 36.5842C146.607 36.5468 146.617 36.5062 146.619 36.4647C146.621 36.3834 146.592 36.3042 146.538 36.2435C146.484 36.1828 146.408 36.1452 146.327 36.1385C146.286 36.1323 146.243 36.135 146.203 36.1466C146.162 36.1582 146.125 36.1784 146.093 36.2058C146.061 36.2331 146.036 36.2671 146.018 36.3052C146.001 36.3434 145.992 36.3849 145.992 36.4268Z" fill="#263238"/>
<path d="M145.875 36.0106C145.913 36.0514 146.167 35.8796 146.502 35.8912C146.838 35.9029 147.085 36.0776 147.126 36.0368C147.167 35.9961 147.109 35.9436 147.001 35.8592C146.855 35.7536 146.68 35.6956 146.499 35.6932C146.322 35.6865 146.147 35.7376 146.001 35.8388C145.893 35.9174 145.855 35.9902 145.875 36.0106Z" fill="#263238"/>
<path d="M149.465 36.6424C149.461 36.7242 149.49 36.8041 149.544 36.8654C149.599 36.9268 149.674 36.9647 149.756 36.9714C149.798 36.9778 149.841 36.975 149.881 36.9632C149.922 36.9514 149.959 36.931 149.991 36.9033C150.023 36.8756 150.049 36.8413 150.066 36.8028C150.083 36.7643 150.092 36.7225 150.092 36.6802C150.095 36.5987 150.066 36.5192 150.012 36.4583C149.957 36.3975 149.881 36.3601 149.8 36.3541C149.758 36.3478 149.716 36.3506 149.676 36.3622C149.635 36.3738 149.598 36.394 149.566 36.4213C149.534 36.4487 149.509 36.4826 149.491 36.5208C149.474 36.559 149.465 36.6004 149.465 36.6424Z" fill="#263238"/>
<path d="M149.441 36.226C149.479 36.2697 149.733 36.0979 150.068 36.1066C150.403 36.1153 150.651 36.2929 150.695 36.2522C150.739 36.2114 150.675 36.159 150.567 36.0775C150.423 35.9691 150.248 35.9098 150.068 35.9086C149.89 35.9032 149.714 35.9542 149.566 36.0542C149.462 36.1328 149.424 36.2056 149.441 36.226Z" fill="#263238"/>
<path d="M148.135 38.7272C147.956 38.6657 147.77 38.6276 147.581 38.6136C147.494 38.6136 147.412 38.5816 147.4 38.5234C147.393 38.4323 147.416 38.3415 147.465 38.2642L147.739 37.6091C147.994 37.0522 148.203 36.4758 148.366 35.8853C148.067 36.4203 147.812 36.9782 147.602 37.5537C147.511 37.7838 147.421 38.0051 147.336 38.2147C147.28 38.3187 147.261 38.4392 147.284 38.5554C147.295 38.587 147.314 38.6155 147.338 38.6387C147.362 38.6619 147.392 38.6793 147.424 38.6893C147.472 38.7033 147.522 38.7112 147.572 38.7126C147.759 38.7413 147.948 38.7462 148.135 38.7272Z" fill="#263238"/>
<path d="M147.794 42.7658C148.96 42.8125 150.117 42.5353 151.135 41.9651C151.135 41.9651 150.287 43.6452 147.811 43.3511L147.794 42.7658Z" fill="#D3A897"/>
<path d="M150.538 35.2332C150.468 35.3409 150.205 35.2943 149.914 35.2332C149.622 35.172 149.365 35.1225 149.33 34.9973C149.295 34.8721 149.602 34.7061 149.992 34.7847C150.383 34.8634 150.608 35.14 150.538 35.2332Z" fill="#263238"/>
<path d="M147.135 34.7379C147.109 34.8631 146.829 34.9097 146.508 34.9243C146.188 34.9388 145.905 34.9243 145.867 34.7961C145.829 34.668 146.1 34.4875 146.488 34.47C146.876 34.4526 147.161 34.6185 147.135 34.7379Z" fill="#263238"/>
<path d="M148.141 39.5456C148.104 39.5369 148.066 39.5408 148.031 39.5566C147.997 39.5724 147.969 39.5993 147.952 39.633C147.935 39.6627 147.926 39.6962 147.927 39.7302C147.927 39.7642 147.936 39.7975 147.954 39.8268C147.971 39.8562 147.995 39.8805 148.025 39.8974C148.055 39.9143 148.088 39.9232 148.122 39.9232C148.156 39.9232 148.19 39.9143 148.219 39.8974C148.249 39.8805 148.273 39.8562 148.291 39.8268C148.308 39.7975 148.317 39.7642 148.317 39.7302C148.318 39.6962 148.309 39.6627 148.293 39.633C148.272 39.5939 148.238 39.563 148.197 39.5456C148.157 39.5281 148.111 39.525 148.068 39.5369" fill="#D3A897"/>
<path d="M148.219 39.5803C148.219 39.5657 148.164 39.4813 148.015 39.5133C147.971 39.5249 147.93 39.5479 147.897 39.5801C147.865 39.6123 147.841 39.6525 147.829 39.6967C147.813 39.7525 147.814 39.8116 147.833 39.8666C147.851 39.9216 147.885 39.9699 147.931 40.0054C147.979 40.0386 148.037 40.0563 148.095 40.0563C148.154 40.0563 148.212 40.0386 148.26 40.0054C148.299 39.9793 148.329 39.9427 148.348 39.8999C148.367 39.857 148.373 39.8098 148.365 39.7637C148.336 39.6094 148.222 39.5861 148.216 39.6065C148.211 39.6269 148.257 39.6793 148.249 39.7695C148.247 39.7918 148.239 39.8133 148.227 39.8321C148.215 39.8509 148.198 39.8664 148.179 39.8773C148.156 39.8903 148.13 39.8972 148.104 39.8972C148.078 39.8972 148.052 39.8903 148.03 39.8773C148.01 39.86 147.994 39.8378 147.985 39.8128C147.976 39.7878 147.973 39.7609 147.977 39.7346C147.981 39.7116 147.99 39.6898 148.003 39.671C148.017 39.6522 148.035 39.6371 148.056 39.6269C148.138 39.5774 148.211 39.6007 148.219 39.5803Z" fill="#263238"/>
<path d="M152.535 37.0412C152.243 37.7226 151.52 38.2496 151.619 38.9863C151.684 39.461 151.99 39.9036 151.931 40.3811C151.856 40.9635 151.235 41.3944 151.144 41.9913C151.036 42.7222 151.751 43.29 152.034 43.9714C152.45 44.9672 151.92 46.0853 151.905 47.1744C151.922 48.0012 152.239 48.7937 152.797 49.4052C153.354 50.0166 154.115 50.4055 154.938 50.4997C155.602 50.555 156.352 50.3541 156.687 49.7834C156.979 49.3116 156.915 48.7118 157.084 48.1906C157.34 47.4102 158.084 46.8395 158.25 46.0359C158.542 44.5799 156.763 43.357 156.88 41.8661C156.929 41.2284 157.323 40.6752 157.489 40.0579C157.595 39.6522 157.603 39.2272 157.513 38.8178C157.423 38.4084 157.237 38.0261 156.97 37.7022C156.53 37.181 155.894 36.8287 155.512 36.2696C155.089 35.6261 155.075 34.8137 154.929 34.0537C154.733 33.13 154.306 32.2709 153.688 31.5567C153.069 30.8425 152.279 30.2967 151.392 29.97C150.505 29.6434 149.549 29.5467 148.615 29.689C147.68 29.8313 146.797 30.208 146.047 30.7837C146.047 30.7837 145.625 32.7026 147.599 33.0258C149.573 33.349 150.485 32.9763 150.707 33.7654C150.655 34.0905 150.68 34.4233 150.782 34.7366C150.883 35.0499 151.057 35.3347 151.29 35.5679C152.095 36.4356 152.862 36.2492 152.535 37.0412Z" fill="#263238"/>
<path d="M155.67 50.351C155.609 50.3531 155.548 50.3472 155.489 50.3335C155.318 50.3033 155.15 50.2575 154.987 50.1967C154.385 49.9662 153.857 49.5767 153.459 49.0698C153.18 48.7201 152.962 48.3265 152.812 47.9051C152.642 47.4252 152.552 46.9204 152.547 46.4113C152.541 45.8501 152.611 45.2908 152.757 44.7487C152.836 44.4624 152.934 44.1813 153.048 43.9072C153.169 43.6343 153.275 43.3553 153.366 43.0715C153.446 42.7917 153.446 42.4951 153.366 42.2154C153.281 41.94 153.17 41.6729 153.037 41.4175C152.901 41.1643 152.787 40.9004 152.695 40.6284C152.606 40.3593 152.585 40.0721 152.634 39.7928C152.751 39.2453 153.083 38.8377 153.281 38.4213C153.47 38.0358 153.56 37.6096 153.544 37.1808C153.517 36.5533 153.289 35.951 152.894 35.4629C152.74 35.2919 152.576 35.1314 152.401 34.9824C152.605 35.0971 152.788 35.247 152.94 35.425C153.365 35.9124 153.615 36.5271 153.652 37.1721C153.676 37.6196 153.588 38.066 153.395 38.4708C153.194 38.9017 152.87 39.3123 152.771 39.8131C152.672 40.314 152.908 40.841 153.168 41.3477C153.309 41.6104 153.425 41.8864 153.512 42.1717C153.598 42.4764 153.598 42.7988 153.512 43.1035C153.415 43.3972 153.303 43.6859 153.177 43.9683C153.062 44.2365 152.964 44.5117 152.885 44.7923C152.74 45.3207 152.669 45.8664 152.672 46.4142C152.663 47.3472 152.965 48.2567 153.529 48.9999C153.907 49.5005 154.41 49.8931 154.987 50.1384C155.422 50.3073 155.672 50.3335 155.67 50.351Z" fill="#455A64"/>
<path d="M155.378 35.6581C155.236 35.6948 155.09 35.7163 154.944 35.7221C154.544 35.7649 154.14 35.7541 153.742 35.6901C153.441 35.6456 153.152 35.5415 152.892 35.384C152.631 35.2265 152.405 35.0187 152.226 34.7729C152.059 34.4618 151.926 34.1338 151.829 33.7945C151.705 33.4556 151.471 33.1677 151.165 32.9763C150.526 32.5715 149.777 32.522 149.124 32.4434C148.521 32.4134 147.936 32.2311 147.424 31.9135C147.08 31.6863 146.832 31.3413 146.727 30.9438C146.701 30.8361 146.694 30.7248 146.706 30.6148C146.706 30.5391 146.724 30.5012 146.73 30.5012C146.733 30.6454 146.752 30.7889 146.785 30.9293C146.906 31.3009 147.154 31.6184 147.485 31.8261C147.988 32.1192 148.556 32.2833 149.138 32.3036C149.791 32.3793 150.567 32.4172 151.249 32.8481C151.583 33.0575 151.838 33.3721 151.972 33.7421C152.064 34.0728 152.19 34.3929 152.348 34.6972C152.688 35.1624 153.197 35.4761 153.766 35.5707C154.15 35.6421 154.541 35.6684 154.932 35.6493C155.081 35.641 155.23 35.6439 155.378 35.6581Z" fill="#455A64"/>
<path d="M154.655 33.2881C154.545 33.3247 154.43 33.3415 154.314 33.3376C153.77 33.3412 153.247 33.1322 152.856 32.7552C152.677 32.5766 152.525 32.3737 152.404 32.1524C152.141 31.7099 151.888 31.1653 151.343 30.9382C150.817 30.7622 150.258 30.7133 149.71 30.7955C149.247 30.8604 148.778 30.8604 148.316 30.7955C147.994 30.751 147.691 30.6179 147.441 30.4112C147.377 30.3549 147.32 30.2903 147.272 30.219C147.237 30.1685 147.222 30.1423 147.228 30.1404C147.228 30.1404 147.31 30.2336 147.479 30.3646C147.728 30.5417 148.018 30.6538 148.322 30.6907C148.776 30.7418 149.234 30.734 149.686 30.6674C150.258 30.5742 150.844 30.6242 151.392 30.813C151.674 30.9394 151.915 31.1409 152.089 31.3954C152.243 31.6224 152.384 31.8576 152.512 32.1C152.627 32.3117 152.769 32.5074 152.935 32.6824C153.081 32.8303 153.249 32.9551 153.433 33.0522C153.704 33.1936 154.003 33.276 154.308 33.2939C154.532 33.291 154.652 33.2735 154.655 33.2881Z" fill="#455A64"/>
<path d="M156.539 49.7225C156.524 49.7225 156.617 49.5303 156.725 49.1692C156.871 48.6623 156.936 48.1356 156.918 47.6085C156.896 46.8282 156.683 46.0652 156.297 45.3868C156.084 45.0053 155.76 44.6646 155.495 44.2453C155.354 44.0317 155.255 43.7937 155.203 43.5436C155.157 43.2803 155.179 43.0097 155.267 42.7574C155.431 42.2536 155.722 41.8314 155.786 41.3684C155.85 40.9055 155.629 40.4949 155.407 40.1076C155.293 39.9192 155.189 39.7248 155.095 39.5253C155.01 39.3318 154.954 39.1267 154.929 38.9167C154.902 38.5467 154.913 38.1748 154.964 37.8073C155.057 37.2877 155.009 36.7527 154.824 36.2582C154.742 36.085 154.624 35.9304 154.48 35.804C154.48 35.804 154.495 35.804 154.515 35.8214C154.55 35.8386 154.581 35.8612 154.608 35.8884C154.722 35.9833 154.815 36.1014 154.879 36.2349C155.09 36.7336 155.156 37.2817 155.069 37.816C155.029 38.1767 155.024 38.5405 155.054 38.9021C155.126 39.309 155.288 39.6948 155.527 40.0319C155.651 40.2287 155.758 40.4363 155.845 40.6521C155.936 40.8851 155.967 41.1379 155.932 41.3859C155.862 41.8955 155.562 42.3264 155.41 42.8011C155.331 43.0301 155.31 43.2753 155.349 43.5145C155.4 43.7458 155.493 43.9659 155.623 44.1638C155.871 44.5685 156.206 44.915 156.419 45.314C156.81 46.0153 157.018 46.8031 157.026 47.6056C157.035 48.1427 156.952 48.6774 156.781 49.1867C156.734 49.3245 156.677 49.4588 156.611 49.5885C156.594 49.6364 156.569 49.6815 156.539 49.7225Z" fill="#455A64"/>
<path d="M144.663 103.978C144.663 103.978 142.697 85.3892 142.584 78.5202C142.47 71.6513 145.677 64.8725 145.677 64.8725L158.239 64.3513C158.239 64.3513 160.723 71.3193 160.767 74.2515C160.854 79.9412 159.253 85.5581 159.437 90.0714L159.857 103.99" fill="#263238"/>
<path d="M160.279 81.1235C160.214 81.1804 160.145 81.2329 160.072 81.2808L159.959 81.3594L159.836 81.4788C159.728 81.572 159.63 81.6765 159.544 81.7903C159.139 82.2854 158.845 83.1735 158.562 84.277C158.417 84.8892 158.204 85.4831 157.926 86.0474C157.842 86.202 157.744 86.3491 157.635 86.4871C157.582 86.557 157.533 86.6327 157.471 86.6997L157.279 86.8919C157.003 87.1491 156.683 87.3543 156.334 87.4975C155.631 87.8062 154.835 87.9518 154.112 88.3157C153.371 88.7138 152.799 89.365 152.5 90.1502C152.144 90.9393 151.917 91.7662 151.625 92.5408C151.333 93.3153 150.94 94.0549 150.313 94.5266C149.714 94.9426 149.002 95.167 148.272 95.1702C147.595 95.2109 146.968 95.1905 146.406 95.275C145.899 95.3275 145.415 95.51 145 95.8049C144.697 96.0415 144.47 96.3613 144.347 96.7251C144.269 96.9546 144.252 97.2004 144.298 97.4385C144.333 97.6015 144.376 97.6801 144.368 97.6831C144.321 97.61 144.287 97.5291 144.268 97.4443C144.207 97.2014 144.215 96.9461 144.292 96.7076C144.408 96.3258 144.636 95.9878 144.948 95.738C145.373 95.4176 145.876 95.2165 146.406 95.1556C146.989 95.0624 147.61 95.0741 148.278 95.0304C148.986 95.0257 149.677 94.8064 150.258 94.4014C150.847 93.8872 151.282 93.22 151.514 92.4738C151.806 91.708 152.019 90.8781 152.389 90.0745C152.703 89.257 153.301 88.5799 154.074 88.1672C154.827 87.7945 155.623 87.6518 156.308 87.3548C156.643 87.2162 156.951 87.019 157.218 86.7725L157.401 86.589C157.46 86.525 157.509 86.4522 157.562 86.3852C157.664 86.2528 157.755 86.1115 157.833 85.963C158.112 85.4064 158.328 84.8204 158.477 84.2159C158.769 83.1152 159.087 82.2155 159.515 81.7175C159.601 81.6041 159.698 81.5006 159.807 81.4089C159.854 81.3681 159.894 81.3274 159.935 81.2953L160.055 81.2196C160.128 81.1831 160.203 81.151 160.279 81.1235Z" fill="#FAFAFA"/>
<path d="M160.355 72.5217C160.369 72.6035 160.374 72.6864 160.373 72.7692C160.372 73.0096 160.342 73.2491 160.285 73.4826C160.034 74.3344 159.541 75.0951 158.865 75.6723C158.419 76.0817 157.931 76.4419 157.407 76.7468C156.845 77.0787 156.224 77.3961 155.585 77.7572C154.914 78.1163 154.29 78.5553 153.725 79.0646C153.145 79.6388 152.668 80.3074 152.313 81.0417C151.956 81.786 151.548 82.505 151.092 83.1936C150.86 83.5145 150.592 83.8076 150.293 84.0671C149.998 84.3176 149.674 84.5317 149.328 84.7048C148.701 85.0122 148.048 85.2626 147.377 85.4531C146.753 85.6453 146.17 85.8171 145.662 86.0355C145.202 86.2184 144.764 86.4529 144.356 86.7343C144.049 86.9468 143.774 87.2006 143.537 87.4885C143.338 87.7382 143.173 88.0122 143.044 88.3038C143.065 88.2231 143.092 88.1442 143.126 88.0679C143.221 87.848 143.344 87.6406 143.49 87.4506C143.723 87.1505 143.998 86.8857 144.307 86.6644C144.716 86.373 145.157 86.1288 145.622 85.9365C146.183 85.7079 146.757 85.5087 147.339 85.3396C148.001 85.1446 148.645 84.8932 149.263 84.5883C149.592 84.4173 149.9 84.2103 150.182 83.971C150.47 83.7152 150.728 83.428 150.952 83.1149C151.401 82.4297 151.806 81.7157 152.162 80.9777C152.528 80.227 153.021 79.5452 153.62 78.9627C154.195 78.4458 154.831 78.0018 155.515 77.6407C156.156 77.2826 156.778 76.971 157.34 76.642C157.862 76.3473 158.351 75.9978 158.798 75.5995C159.468 75.0396 159.966 74.3016 160.233 73.471C160.308 73.1599 160.349 72.8416 160.355 72.5217Z" fill="#FAFAFA"/>
<path d="M142.647 79.4929C142.636 79.4748 142.627 79.4552 142.621 79.4346C142.599 79.3785 142.581 79.3211 142.565 79.2628C142.515 79.0312 142.526 78.7907 142.595 78.564C142.758 77.9816 143.402 77.2333 144.44 76.8635C144.959 76.6859 145.545 76.5723 146.158 76.4209C146.666 76.3367 147.147 76.1324 147.561 75.825C147.974 75.5175 148.308 75.1158 148.534 74.6534C148.7 74.314 148.845 73.9649 148.969 73.6081C149.197 72.833 149.506 72.0843 149.893 71.3747C150.336 70.6772 151.008 70.1552 151.794 69.8984C152.509 69.6667 153.239 69.4819 153.978 69.3452C154.638 69.2187 155.277 69.0011 155.876 68.6987C156.384 68.409 156.822 68.0114 157.159 67.534C157.657 66.8448 157.941 66.0246 157.976 65.1754C157.977 64.8638 157.957 64.5524 157.914 64.2437C158.003 64.5462 158.043 64.8605 158.034 65.1754C158.023 66.043 157.748 66.8867 157.247 67.5952C156.905 68.0883 156.458 68.4991 155.937 68.7977C155.33 69.1114 154.681 69.3378 154.01 69.4704C153.278 69.6092 152.555 69.795 151.847 70.0265C151.092 70.2734 150.447 70.7748 150.021 71.4446C149.641 72.1446 149.335 72.8823 149.109 73.6459C148.983 74.0093 148.834 74.3643 148.662 74.7087C148.49 75.0397 148.27 75.3437 148.009 75.6114C147.497 76.0778 146.867 76.395 146.187 76.5286C145.569 76.6859 144.986 76.7849 144.475 76.9537C143.464 77.2973 142.822 78.0049 142.65 78.5698C142.579 78.7876 142.56 79.0189 142.595 79.2454C142.619 79.3262 142.637 79.409 142.647 79.4929Z" fill="#FAFAFA"/>
<path d="M159.276 95.2166C159.288 95.277 159.295 95.3384 159.297 95.4C159.302 95.5764 159.284 95.7528 159.241 95.9241C159.058 96.5555 158.67 97.1085 158.139 97.4965C157.784 97.7788 157.392 98.0101 156.973 98.1837C156.527 98.373 156.034 98.5244 155.515 98.6845C154.976 98.8417 154.449 99.0363 153.937 99.2669C153.406 99.5204 152.929 99.8756 152.535 100.312C152.109 100.755 151.742 101.241 151.334 101.672C150.943 102.089 150.49 102.443 149.989 102.72C149.138 103.184 148.186 103.432 147.216 103.442C146.567 103.449 145.921 103.342 145.309 103.125C145.143 103.068 144.982 102.999 144.825 102.918C144.769 102.895 144.715 102.864 144.665 102.828C144.724 102.844 144.781 102.865 144.837 102.889C144.997 102.958 145.161 103.018 145.327 103.07C145.938 103.261 146.576 103.351 147.216 103.335C148.165 103.31 149.093 103.057 149.922 102.598C150.407 102.324 150.846 101.977 151.226 101.57C151.625 101.145 151.99 100.662 152.424 100.207C152.842 99.7544 153.345 99.3882 153.905 99.13C154.425 98.8985 154.959 98.7039 155.506 98.5477C156.019 98.3904 156.509 98.2565 156.964 98.0643C157.371 97.898 157.753 97.6776 158.101 97.4092C158.624 97.0406 159.013 96.5138 159.212 95.9067C159.255 95.6791 159.277 95.4481 159.276 95.2166Z" fill="#FAFAFA"/>
<path d="M157.845 56.6233L155.413 56.6815C155.319 57.1712 155.133 57.6386 154.865 58.0588C152.824 54.5355 151.258 49.8184 150.867 47.9228C150.925 47.7335 150.992 47.5238 151.077 47.2909C151.138 46.9371 151.127 46.5747 151.045 46.2252C150.975 45.803 150.858 45.2352 150.823 44.9731C150.715 44.1694 150.584 44.0442 150.304 44.1345C149.925 44.2597 150.462 46.3853 150.15 46.4319C149.981 46.4552 149.777 45.7273 149.718 45.1303C149.66 44.5334 149.386 42.6931 149.191 42.5708C148.899 42.3903 148.645 42.6757 148.721 43.2697C148.797 43.8637 148.887 45.669 148.572 45.6952C148.257 45.7214 147.989 42.6698 147.989 42.6698C147.989 42.6698 148.039 42.0059 147.671 42.0205C147.012 42.0496 147.528 45.2643 147.584 45.57C147.625 45.7797 147.292 45.8204 147.251 45.5904C147.211 45.3604 147.059 42.5417 146.377 42.565C145.858 42.565 146.776 45.2119 146.485 45.8233C146.193 46.4348 145.995 43.7501 145.502 43.7851C145.318 43.7996 145.181 43.8346 145.519 45.3516C145.843 46.557 146.233 47.7438 146.686 48.907C147.467 53.1145 150.896 66.5759 156.27 64.1125C159.279 62.7323 160.498 56.6233 160.498 56.6233H157.845Z" fill="#F9D0C0"/>
<path d="M147.479 45.774C147.502 45.7798 147.526 45.7798 147.549 45.774C147.584 45.7633 147.614 45.7404 147.634 45.7094C147.654 45.6785 147.662 45.6415 147.657 45.6051C147.657 45.4246 147.622 45.1625 147.581 44.8218C147.513 44.4112 147.468 43.9971 147.447 43.5814C147.447 43.3368 147.447 43.0747 147.462 42.7981C147.466 42.6575 147.481 42.5173 147.505 42.3788C147.529 42.2478 147.616 42.0876 147.718 42.1138H147.736C147.838 42.1138 147.919 42.1895 147.952 42.3118C147.988 42.4386 148.001 42.5706 147.992 42.702C148.052 43.5175 148.157 44.3291 148.304 45.1334C148.328 45.2411 148.351 45.3518 148.386 45.4624C148.402 45.5191 148.421 45.5745 148.444 45.6284C148.459 45.6584 148.476 45.6876 148.494 45.7158C148.507 45.737 148.525 45.755 148.546 45.7681C148.567 45.7813 148.591 45.7893 148.616 45.7915C148.659 45.7868 148.699 45.7696 148.732 45.7422C148.764 45.7147 148.788 45.6781 148.8 45.6371C148.825 45.5802 148.844 45.5206 148.855 45.4595C148.878 45.3422 148.894 45.2235 148.902 45.1043C148.929 44.6191 148.922 44.1326 148.882 43.6484C148.845 43.4066 148.835 43.1614 148.853 42.9175C148.863 42.8121 148.914 42.715 148.995 42.6467C149.014 42.6356 149.035 42.6286 149.057 42.6261C149.078 42.6235 149.1 42.6256 149.121 42.6321C149.146 42.6381 149.169 42.6479 149.191 42.6613C149.206 42.6723 149.217 42.6875 149.223 42.7049C149.315 42.9411 149.382 43.186 149.424 43.4358C149.477 43.692 149.52 43.957 149.561 44.222C149.602 44.487 149.64 44.7549 149.672 45.0257C149.697 45.3051 149.742 45.5824 149.806 45.8555C149.84 45.9952 149.884 46.1323 149.937 46.2661C149.967 46.341 150.008 46.4107 150.06 46.4728C150.079 46.4986 150.106 46.5184 150.136 46.5297C150.167 46.541 150.2 46.5435 150.232 46.5369C150.261 46.5272 150.288 46.51 150.309 46.487C150.33 46.4641 150.344 46.4361 150.351 46.4059C150.386 46.2571 150.397 46.1038 150.383 45.9516C150.383 45.806 150.366 45.6604 150.351 45.5207C150.331 45.2761 150.308 45.0344 150.299 44.7956C150.291 44.6783 150.291 44.5606 150.299 44.4433C150.305 44.3914 150.317 44.3404 150.337 44.2919C150.343 44.2759 150.352 44.2611 150.363 44.2482H150.401C150.593 44.1696 150.657 44.4375 150.71 44.6529C150.762 44.8684 150.783 45.113 150.829 45.343C150.905 45.8002 151.004 46.2574 151.054 46.6941C151.088 46.9033 151.08 47.117 151.031 47.3231C150.961 47.5327 150.891 47.7395 150.824 47.9462V47.9666V47.9841C151.165 49.4146 151.601 50.8211 152.127 52.1946C152.588 53.4379 153.051 54.524 153.457 55.3976C153.862 56.2711 154.229 56.9554 154.48 57.4155L154.772 57.9367C154.803 57.9988 154.841 58.0574 154.885 58.1114C154.861 58.0467 154.831 57.9843 154.795 57.925L154.503 57.3922C154.264 56.9234 153.92 56.2274 153.524 55.3539C153.127 54.4803 152.678 53.3942 152.229 52.1509C151.715 50.7795 151.289 49.3771 150.952 47.952V47.9928C151.019 47.789 151.086 47.5822 151.156 47.3755C151.217 47.1486 151.229 46.9114 151.191 46.6796C151.139 46.2224 151.042 45.7798 150.966 45.3198C150.923 45.0926 150.894 44.8597 150.847 44.6209C150.844 44.4983 150.823 44.3767 150.786 44.2599C150.752 44.1888 150.696 44.1313 150.625 44.0968C150.551 44.0723 150.47 44.0723 150.395 44.0968H150.348C150.324 44.1047 150.301 44.1176 150.281 44.1346C150.249 44.1621 150.224 44.1971 150.208 44.2366C150.182 44.2996 150.165 44.3664 150.159 44.4346C150.15 44.5606 150.15 44.6871 150.159 44.8131C150.159 45.0577 150.194 45.3023 150.214 45.5469C150.214 45.6896 150.238 45.8381 150.243 45.9691C150.255 46.1004 150.248 46.2327 150.223 46.3622C150.223 46.3913 150.2 46.3855 150.223 46.4L150.205 46.3826C150.168 46.335 150.139 46.282 150.118 46.2253C150.067 46.0994 150.025 45.97 149.993 45.8381C149.929 45.5729 149.885 45.3033 149.861 45.0315C149.83 44.7578 149.792 44.487 149.748 44.2191C149.707 43.9512 149.66 43.6891 149.608 43.4271C149.564 43.1603 149.489 42.8995 149.386 42.6496C149.366 42.6079 149.335 42.5726 149.296 42.5477C149.262 42.528 149.226 42.5124 149.188 42.5011C149.146 42.4902 149.103 42.4877 149.06 42.4937C149.018 42.4997 148.977 42.5141 148.94 42.5361C148.88 42.5809 148.83 42.6377 148.793 42.7028C148.755 42.768 148.732 42.8401 148.724 42.9146C148.705 43.0469 148.705 43.1812 148.724 43.3135C148.724 43.4387 148.753 43.561 148.762 43.6833C148.803 44.1597 148.811 44.6383 148.788 45.1159C148.782 45.2294 148.767 45.3422 148.745 45.4537C148.736 45.5058 148.722 45.5566 148.701 45.6051C148.693 45.6243 148.682 45.642 148.669 45.6575C148.669 45.6837 148.648 45.6575 148.651 45.6925C148.651 45.6633 148.651 45.6925 148.651 45.6546C148.638 45.635 148.627 45.6145 148.616 45.5935C148.596 45.5469 148.578 45.4945 148.561 45.445C148.529 45.3401 148.506 45.2324 148.482 45.1276C148.33 44.3302 148.22 43.5255 148.153 42.7166C148.161 42.5702 148.145 42.4234 148.103 42.2827C148.084 42.2093 148.045 42.1428 147.989 42.0905C147.961 42.063 147.927 42.0416 147.89 42.0276C147.853 42.0135 147.813 42.0072 147.774 42.009H147.791C147.742 42.0018 147.691 42.0093 147.646 42.0305C147.601 42.0518 147.563 42.0858 147.537 42.1284C147.494 42.1979 147.464 42.2749 147.45 42.3555C147.426 42.4999 147.412 42.6459 147.409 42.7923C147.409 43.0835 147.409 43.3368 147.409 43.5843C147.437 44.0026 147.49 44.4189 147.57 44.8306C147.619 45.1683 147.657 45.4304 147.675 45.608C147.68 45.6391 147.675 45.6712 147.659 45.6988C147.644 45.7264 147.619 45.7478 147.59 45.7594C147.502 45.7682 147.476 45.7711 147.479 45.774Z" fill="#D3A897"/>
<path d="M128.488 60.6328C127.919 60.6206 127.351 60.6863 126.8 60.8279C125.292 61.2239 122.694 62.7963 122.586 64.7384H124.476C124.476 64.7384 123.417 66.9864 123.727 66.7767C124.534 66.2351 126.138 64.6074 126.138 64.6074L128.488 60.6328Z" fill="#F9D0C0"/>
<path d="M154.244 26.7887C154.2 26.7887 154.031 25.2338 153.862 23.2945C153.693 21.3552 153.588 19.8003 153.628 19.8003C153.669 19.8003 153.841 21.3552 154.01 23.2945C154.18 25.2338 154.284 26.7887 154.244 26.7887Z" fill="#263238"/>
<path d="M162.528 19.9204C162.56 19.9437 161.286 21.7927 159.679 24.0493C158.072 26.306 156.74 28.1259 156.705 28.091C156.67 28.056 157.947 26.2187 159.554 23.962C161.16 21.7053 162.493 19.8971 162.528 19.9204Z" fill="#263238"/>
<path d="M165.968 28.2999C165.968 28.3407 164.487 28.6814 162.644 29.0599C160.801 29.4384 159.297 29.7122 159.288 29.6714C159.279 29.6306 160.766 29.2899 162.612 28.9114C164.458 28.5329 165.948 28.2592 165.968 28.2999Z" fill="#263238"/>
<path d="M66.8088 68.2938L56.4868 121.231L55.1455 128.161L123.959 127.829C127.05 127.814 129.791 125.074 130.779 121.004L142.985 71.028C143.74 67.9385 142.084 64.7239 139.74 64.7268L70.0746 64.7996C68.5583 64.7967 67.1996 66.2293 66.8088 68.2938Z" fill="#C6C4C3"/>
<g opacity="0.5">
<path opacity="0.5" d="M66.8088 68.2938L56.4868 121.231L55.1455 128.161L123.959 127.829C127.05 127.814 129.791 125.074 130.779 121.004L142.985 71.028C143.74 67.9385 142.084 64.7239 139.74 64.7268L70.0746 64.7996C68.5583 64.7967 67.1996 66.2293 66.8088 68.2938Z" fill="black"/>
</g>
<path d="M117.367 117.637L110.077 58.9904C109.786 56.5882 107.864 54.7945 105.598 54.8033L89.6197 54.8528C89.0259 54.8594 88.4397 54.9868 87.8968 55.2271C87.3538 55.4674 86.8656 55.8156 86.4618 56.2504L78.8807 64.3074L34.4434 64.5462C31.7287 64.5608 29.641 67.129 29.9997 70.0117L36.7673 124.215C37.0589 126.615 38.9804 128.405 41.2402 128.402L118.699 128.248C127.324 128.426 128.15 125.884 128.15 125.884C118.247 128.07 117.367 117.652 117.367 117.637Z" fill="#C6C4C3"/>
<g opacity="0.5">
<path opacity="0.5" d="M83.9657 105.908L81.3531 108.71L61.2339 90.633L63.8465 87.8318L83.9657 105.908Z" fill="white"/>
<path opacity="0.5" d="M80.2597 87.2117L83.1464 89.8061L64.9428 109.33L62.0532 106.735L80.2597 87.2117Z" fill="white"/>
</g>
<path d="M128.427 30.2189C128.333 30.1792 128.251 30.1135 128.193 30.0294C128.135 29.9454 128.102 29.8465 128.097 29.7443L127.981 27.0421C127.977 26.9582 127.992 26.8744 128.026 26.7975C128.06 26.7205 128.111 26.6525 128.176 26.5989C128.241 26.5452 128.317 26.5073 128.399 26.4882C128.481 26.4691 128.567 26.4694 128.649 26.4889C128.874 26.5375 129.108 26.5396 129.334 26.4951C129.561 26.4505 129.776 26.3602 129.967 26.2297C130.142 26.1189 130.293 25.9733 130.409 25.8021C130.526 25.6308 130.607 25.4374 130.646 25.2339C130.672 25.0278 130.657 24.8185 130.601 24.6185C130.545 24.4184 130.449 24.2316 130.319 24.0692C130.183 23.8844 130.011 23.7283 129.814 23.6099C129.617 23.4914 129.398 23.413 129.17 23.3791C128.712 23.3536 128.258 23.4835 127.882 23.7477C127.506 24.0119 127.231 24.395 127.1 24.835C127.057 24.9683 126.963 25.0797 126.84 25.146C126.716 25.2122 126.571 25.2283 126.436 25.1907C126.301 25.1532 126.185 25.065 126.113 24.9445C126.041 24.824 126.019 24.6804 126.051 24.5438C126.249 23.8518 126.68 23.2491 127.271 22.837C127.862 22.425 128.577 22.2288 129.296 22.2813C129.67 22.3311 130.03 22.4555 130.355 22.647C130.681 22.8386 130.964 23.0935 131.188 23.3965C131.407 23.6774 131.566 23.9991 131.658 24.3428C131.75 24.6864 131.771 25.0448 131.722 25.397C131.656 25.7486 131.518 26.0829 131.317 26.3794C131.117 26.6759 130.857 26.9282 130.556 27.1208C130.118 27.4149 129.607 27.5813 129.08 27.6012L129.17 29.6861C129.174 29.7777 129.154 29.8686 129.113 29.9506C129.072 30.0325 129.01 30.1027 128.935 30.1546C128.859 30.2066 128.772 30.2387 128.68 30.2479C128.589 30.2571 128.497 30.2431 128.412 30.2073L128.427 30.2189Z" fill="#C6C4C3"/>
<path d="M129.226 31.3256C129.232 31.4135 129.212 31.5013 129.168 31.5778C129.124 31.6543 129.058 31.7161 128.979 31.7554C128.9 31.7947 128.811 31.8097 128.724 31.7985C128.636 31.7873 128.554 31.7504 128.488 31.6925C128.421 31.6346 128.373 31.5583 128.35 31.4732C128.327 31.3881 128.33 31.2981 128.358 31.2146C128.386 31.131 128.438 31.0577 128.508 31.0039C128.578 30.95 128.662 30.9181 128.75 30.9121C128.809 30.9078 128.868 30.915 128.923 30.9335C128.979 30.952 129.03 30.9813 129.074 31.0198C129.119 31.0582 129.155 31.1051 129.181 31.1575C129.207 31.21 129.222 31.2672 129.226 31.3256Z" fill="#C6C4C3"/>
<path d="M119.058 26.4075C119.071 26.3499 119.08 26.2916 119.085 26.2328C119.085 26.1047 119.117 25.9416 119.14 25.7116C119.169 25.4292 119.216 25.149 119.283 24.873C119.321 24.7099 119.341 24.5294 119.4 24.346C119.458 24.1625 119.516 23.9645 119.58 23.7636C119.918 22.7681 120.41 21.8317 121.038 20.9886C121.862 19.8969 122.906 18.9902 124.103 18.3272C124.784 17.9436 125.51 17.6444 126.263 17.4362C127.077 17.2209 127.915 17.1113 128.756 17.1101C129.2 17.103 129.643 17.1263 130.083 17.18C130.308 17.2033 130.529 17.2615 130.754 17.2994C130.981 17.3382 131.205 17.3927 131.424 17.4624C132.344 17.7189 133.218 18.1147 134.017 18.6359C135.793 19.7864 137.146 21.4831 137.871 23.4695C138.262 24.5336 138.459 25.6586 138.455 26.7919C138.467 27.9594 138.26 29.1188 137.845 30.2104L137.714 30.5423L137.696 30.586L137.714 30.6297C138.446 32.3098 139.172 33.9608 139.857 35.5594L139.98 35.4196L135.606 33.7453L135.553 33.7249L135.51 33.7657C134.353 34.8852 132.936 35.7015 131.387 36.1418C130.062 36.5058 128.676 36.5852 127.319 36.3749C125.962 36.1646 124.665 35.6693 123.514 34.9217C122.571 34.3042 121.74 33.5313 121.056 32.6359C120.065 31.329 119.422 29.792 119.19 28.1692C119.155 27.878 119.125 27.6334 119.099 27.4121C119.073 27.1908 119.099 27.0103 119.085 26.856C119.07 26.7016 119.085 26.5997 119.085 26.5153C119.099 26.5131 119.112 26.5055 119.122 26.494C119.131 26.4825 119.135 26.468 119.134 26.4533C119.133 26.4387 119.126 26.425 119.116 26.415C119.105 26.405 119.091 26.3995 119.076 26.3995C119.061 26.3995 119.047 26.405 119.036 26.415C119.025 26.425 119.019 26.4387 119.018 26.4533C119.017 26.468 119.021 26.4825 119.03 26.494C119.039 26.5055 119.053 26.5131 119.067 26.5153C119.067 26.5997 119.067 26.7133 119.067 26.856C119.067 26.9986 119.067 27.1966 119.067 27.4179C119.067 27.6392 119.117 27.8926 119.146 28.1808C119.242 28.8812 119.409 29.57 119.644 30.2366C119.978 31.1169 120.427 31.9491 120.98 32.7116C121.667 33.6229 122.504 34.4107 123.455 35.0411C124.621 35.8074 125.936 36.3174 127.314 36.5373C128.692 36.7572 130.101 36.6819 131.448 36.3165C133.016 35.8717 134.45 35.0476 135.623 33.9171L135.527 33.9375L139.901 35.6205L140.119 35.705L140.023 35.4808C139.329 33.8822 138.612 32.2341 137.883 30.5511V30.6355L138.017 30.2948C138.443 29.1794 138.654 27.9941 138.641 26.8006C138.65 25.6433 138.453 24.4936 138.058 23.4054C137.317 21.3795 135.934 19.6505 134.119 18.4816C133.3 17.9482 132.403 17.5454 131.459 17.2877C131.236 17.2172 131.008 17.1637 130.777 17.1276C130.55 17.0868 130.325 17.0286 130.098 17.0082C129.652 16.9529 129.203 16.9276 128.754 16.9325C127.898 16.9361 127.048 17.0516 126.223 17.2761C125.459 17.4927 124.724 17.7996 124.033 18.1904C122.824 18.8696 121.773 19.7976 120.951 20.9129C120.324 21.77 119.839 22.7215 119.513 23.7316C119.452 23.9412 119.394 24.1421 119.341 24.3139C119.295 24.4895 119.258 24.6673 119.23 24.8468C119.168 25.1247 119.127 25.407 119.108 25.6912C119.09 25.9154 119.079 26.0872 119.07 26.2154C119.058 26.2786 119.054 26.3432 119.058 26.4075Z" fill="#263238"/>
</svg>
