<svg width="24" height="24" viewBox="0 0 24 24" fill="none" xmlns="http://www.w3.org/2000/svg">
<path d="M6.49 4.18797C6.49 4.3919 6.34594 4.56719 6.1463 4.60699L6.49 4.18797ZM6.49 4.18797C6.49 3.98406 6.34597 3.80878 6.14634 3.76897M6.49 4.18797L6.14634 3.76897M6.14634 3.76897C5.36686 3.61278 4.76275 3.00869 4.60653 2.22923C4.60652 2.2292 4.60651 2.22917 4.60651 2.22914L4.49375 2.25174C4.46469 2.10549 4.33656 2.00049 4.1875 2.00049L6.14634 3.76897ZM2.22879 4.607C3.00851 4.76292 3.61256 5.36697 3.76847 6.14669L2.22879 4.607ZM3.76848 6.14675C3.80831 6.34683 3.98369 6.49045 4.1875 6.49045C4.39131 6.49045 4.56669 6.34683 4.60652 6.14675C4.76241 5.36699 5.36649 4.76291 6.14625 4.607L3.76848 6.14675ZM3.76849 2.22914C3.6123 3.0086 3.00823 3.6127 2.22879 3.76894L3.76849 2.22914ZM2.22872 3.76895C2.02907 3.80874 1.885 3.98403 1.885 4.18797C1.885 4.3919 2.02906 4.56719 2.22871 4.60699L2.22872 3.76895ZM4.1875 3.41037C4.39291 3.7184 4.65708 3.98256 4.96511 4.18797C4.65708 4.39338 4.39291 4.65755 4.1875 4.96558C3.98209 4.65755 3.71792 4.39338 3.40989 4.18797C3.71792 3.98256 3.98209 3.7184 4.1875 3.41037Z" fill="white" stroke="white" stroke-width="0.23"/>
<path d="M3.76 21.26V14.8126C3.76 10.9821 6.13324 7.56984 9.6975 6.22614V6.06262C9.6975 5.92031 9.76705 5.79625 9.87273 5.71917L8.78221 2.44793L8.78215 2.44777L8.89125 2.4114C8.85 2.28827 8.88906 2.15296 8.98937 2.07078C9.08969 1.98859 9.23063 1.97703 9.3425 2.04109L3.76 21.26ZM3.76 21.26H2H1.885V21.375V22V22.115H2H4.1875H21.6875C21.9239 22.115 22.115 21.9234 22.115 21.6875V14.8126C22.115 11.2082 20.0113 7.97831 16.7937 6.49012H17H19.1875C19.2964 6.49012 19.385 6.57887 19.385 6.68762C19.385 7.268 19.8571 7.74011 20.4375 7.74011H22H22.115V7.62511V7.00011V6.88511H22H20.4375C20.3286 6.88511 20.24 6.79636 20.24 6.68762C20.24 6.10723 19.7679 5.63512 19.1875 5.63512H18.0318C18.0449 5.5719 18.0525 5.50599 18.0525 5.43763C18.0525 5.32888 18.1411 5.24013 18.25 5.24013H20.75H20.865V5.12513V4.50013V4.38513H20.75H18.25C17.6696 4.38513 17.1975 4.85724 17.1975 5.43763C17.1975 5.54637 17.1089 5.63512 17 5.63512H16.0305L17.0928 2.44793L17.0928 2.44776L16.9838 2.4114M3.76 21.26L16.9587 1.982M16.9838 2.4114C17.025 2.28827 16.9859 2.15296 16.8856 2.07078M16.9838 2.4114L15.9093 5.63512L16.9838 2.4114ZM16.8856 2.07078L16.9588 1.98204C16.9588 1.98203 16.9587 1.98201 16.9587 1.982M16.8856 2.07078L16.9585 1.98182C16.9586 1.98188 16.9587 1.98194 16.9587 1.982M16.8856 2.07078C16.7859 1.98859 16.6447 1.97734 16.5325 2.04109L14.5294 3.18577M16.9587 1.982C16.8217 1.86907 16.6287 1.85415 16.4757 1.9411L16.4754 1.94124L14.5402 3.04714M14.5294 3.18577L14.6012 3.09597L14.5402 3.04714M14.5294 3.18577L14.4723 3.08592L14.5402 3.04714M14.5294 3.18577L14.5402 3.04714M13.2046 1.97879C13.0486 1.85394 12.8264 1.85394 12.6704 1.97879L13.2046 1.97879ZM13.2046 1.97879L13.1328 2.06859L13.2046 1.97879ZM14.233 3.89664L14.2328 3.8965L12.9375 2.86023L11.6422 3.8965C11.5054 4.00587 11.3149 4.02099 11.1629 3.93368L11.1629 3.93374L11.22 3.83389L11.1627 3.9336L14.233 3.89664ZM14.233 3.89664C14.3695 4.00537 14.5598 4.02109 14.7121 3.93373M14.233 3.89664L14.7121 3.93373M14.7121 3.93373C14.7121 3.93369 14.7122 3.93364 14.7123 3.9336M14.7121 3.93373L14.712 3.93374L14.655 3.83389L14.7123 3.9336M14.7123 3.9336L15.9282 3.23898M14.7123 3.9336L15.9282 3.23898M15.9282 3.23898L15.1293 5.63512H10.7457L15.9282 3.23898ZM11.3348 3.04714L9.39965 1.94129L12.6703 1.97879L11.3348 3.04714ZM9.94708 3.239L9.89255 3.07539L9.74281 2.98983L9.79734 3.15344L9.94708 3.239ZM21.26 14.8126V21.26H4.615V14.8126C4.615 11.2453 6.88424 8.07848 10.2623 6.93214C10.4362 6.87315 10.5525 6.71023 10.5525 6.5273V6.49012H15.3225V6.5273C15.3225 6.71023 15.4388 6.87315 15.6127 6.93214C18.9908 8.07848 21.26 11.2453 21.26 14.8126Z" fill="white" stroke="white" stroke-width="0.23"/>
<path d="M7.8225 14.5002C7.8225 17.3206 10.1171 19.6152 12.9375 19.6152C15.7579 19.6152 18.0525 17.3206 18.0525 14.5002C18.0525 11.6798 15.7579 9.38524 12.9375 9.38524C10.1171 9.38524 7.8225 11.6798 7.8225 14.5002ZM17.1975 14.5002C17.1975 16.8492 15.2865 18.7602 12.9375 18.7602C10.5885 18.7602 8.6775 16.8492 8.6775 14.5002C8.6775 12.1512 10.5885 10.2402 12.9375 10.2402C15.2865 10.2402 17.1975 12.1512 17.1975 14.5002Z" fill="white" stroke="white" stroke-width="0.23"/>
<path d="M12.625 11.8852H12.51V12.0002V12.5102H12.4688C11.8021 12.5102 11.26 13.0523 11.26 13.719C11.26 14.3856 11.8021 14.9277 12.4688 14.9277H12.51V15.6352H11.6875H11.5725V15.7502V16.3752V16.4902H11.6875H12.51V17.0002V17.1152H12.625H13.25H13.365V17.0002V16.4902H13.4062C14.0729 16.4902 14.615 15.9481 14.615 15.2815C14.615 14.6148 14.0729 14.0727 13.4062 14.0727H13.365V13.3652H14.1875H14.3025V13.2502V12.6252V12.5102H14.1875H13.365V12.0002V11.8852H13.25H12.625ZM13.4062 14.9277C13.6012 14.9277 13.76 15.0865 13.76 15.2815C13.76 15.4764 13.6012 15.6352 13.4062 15.6352H13.365V14.9277H13.4062ZM12.51 14.0727H12.4688C12.2738 14.0727 12.115 13.9139 12.115 13.719C12.115 13.5241 12.2738 13.3652 12.4688 13.3652H12.51V14.0727Z" fill="white" stroke="white" stroke-width="0.23"/>
<path d="M3.25 7.51024C2.66961 7.51024 2.1975 7.98235 2.1975 8.56274C2.1975 9.14312 2.66961 9.61523 3.25 9.61523C3.83039 9.61523 4.3025 9.14312 4.3025 8.56274C4.3025 7.98235 3.83039 7.51024 3.25 7.51024ZM3.25 8.76023C3.14109 8.76023 3.0525 8.67148 3.0525 8.56274C3.0525 8.45399 3.14109 8.36524 3.25 8.36524C3.35891 8.36524 3.4475 8.45399 3.4475 8.56274C3.4475 8.67148 3.35891 8.76023 3.25 8.76023Z" fill="white" stroke="white" stroke-width="0.23"/>
<path d="M20.125 17.5102H20.01V17.6252V18.2502V18.3652H20.125H20.75H20.865V18.2502V17.6252V17.5102H20.75H20.125Z" fill="white" stroke="white" stroke-width="0.23"/>
<path d="M18.875 17.5102H18.76V17.6252V18.2502V18.3652H18.875H19.5H19.615V18.2502V17.6252V17.5102H19.5H18.875Z" fill="white" stroke="white" stroke-width="0.23"/>
<path d="M17.625 17.5102H17.51V17.6252V18.2502V18.3652H17.625H18.25H18.365V18.2502V17.6252V17.5102H18.25H17.625Z" fill="white" stroke="white" stroke-width="0.23"/>
<path d="M20.125 16.2602H20.01V16.3752V17.0002V17.1152H20.125H20.75H20.865V17.0002V16.3752V16.2602H20.75H20.125Z" fill="white" stroke="white" stroke-width="0.23"/>
<path d="M18.875 16.2602H18.76V16.3752V17.0002V17.1152H18.875H19.5H19.615V17.0002V16.3752V16.2602H19.5H18.875Z" fill="white" stroke="white" stroke-width="0.23"/>
<path d="M20.125 20.0102H20.01V20.1252V20.7502V20.8652H20.125H20.75H20.865V20.7502V20.1252V20.0102H20.75H20.125Z" fill="white" stroke="white" stroke-width="0.23"/>
<path d="M18.875 20.0102H18.76V20.1252V20.7502V20.8652H18.875H19.5H19.615V20.7502V20.1252V20.0102H19.5H18.875Z" fill="white" stroke="white" stroke-width="0.23"/>
<path d="M17.625 20.0102H17.51V20.1252V20.7502V20.8652H17.625H18.25H18.365V20.7502V20.1252V20.0102H18.25H17.625Z" fill="white" stroke="white" stroke-width="0.23"/>
<path d="M20.125 18.7602H20.01V18.8752V19.5002V19.6152H20.125H20.75H20.865V19.5002V18.8752V18.7602H20.75H20.125Z" fill="white" stroke="white" stroke-width="0.23"/>
<path d="M18.875 18.7602H18.76V18.8752V19.5002V19.6152H18.875H19.5H19.615V19.5002V18.8752V18.7602H19.5H18.875Z" fill="white" stroke="white" stroke-width="0.23"/>
<path d="M21.375 1.88549H21.26V2.00049V2.62548V2.74048H21.375H22H22.115V2.62548V2.00049V1.88549H22H21.375Z" fill="white" stroke="white" stroke-width="0.23"/>
<path d="M20.125 1.88549H20.01V2.00049V2.62548V2.74048H20.125H20.75H20.865V2.62548V2.00049V1.88549H20.75H20.125Z" fill="white" stroke="white" stroke-width="0.23"/>
<path d="M18.875 1.88549H18.76V2.00049V2.62548V2.74048H18.875H19.5H19.615V2.62548V2.00049V1.88549H19.5H18.875Z" fill="white" stroke="white" stroke-width="0.23"/>
<path d="M21.375 3.13549H21.26V3.25049V3.87548V3.99048H21.375H22H22.115V3.87548V3.25049V3.13549H22H21.375Z" fill="white" stroke="white" stroke-width="0.23"/>
<path d="M20.125 3.13549H20.01V3.25049V3.87548V3.99048H20.125H20.75H20.865V3.87548V3.25049V3.13549H20.75H20.125Z" fill="white" stroke="white" stroke-width="0.23"/>
<path d="M17.625 18.7602H17.51V18.8752V19.5002V19.6152H17.625H18.25H18.365V19.5002V18.8752V18.7602H18.25H17.625Z" fill="white" stroke="white" stroke-width="0.23"/>
<path d="M16.375 20.0102H16.26V20.1252V20.7502V20.8652H16.375H17H17.115V20.7502V20.1252V20.0102H17H16.375Z" fill="white" stroke="white" stroke-width="0.23"/>
<path d="M16.375 18.7602H16.26V18.8752V19.5002V19.6152H16.375H17H17.115V19.5002V18.8752V18.7602H17H16.375Z" fill="white" stroke="white" stroke-width="0.23"/>
<path d="M6.375 5.32299H6.26V5.43799V6.06298V6.17798H6.375H7H7.115V6.06298V5.43799V5.32299H7H6.375Z" fill="white" stroke="white" stroke-width="0.23"/>
</svg>
