<svg width="24" height="24" viewBox="0 0 24 24" fill="none" xmlns="http://www.w3.org/2000/svg">
<path d="M1.50671 12.8682V13.3701V22.2061H6.53992V20.958L6.56336 20.966C7.87694 21.4029 9.74832 21.7866 11.6044 22.4504L11.745 22.5012L11.8856 22.4641C12.4694 22.3283 14.0349 21.8415 15.9091 21.2395C17.7832 20.6374 19.9229 19.9289 21.5126 19.3801C22.2747 19.1165 22.6852 18.2678 22.4052 17.511V17.5032C22.1109 16.7289 21.2571 16.3875 20.5302 16.6106C19.926 16.7959 17.0922 17.678 15.2294 18.2278C15.2479 17.6947 15.3885 17.1119 14.9559 16.7727L14.9266 16.7512L14.9052 16.7356C12.8114 15.4882 12.6302 15.3334 9.68641 13.7688L9.54578 13.7024L9.39734 13.716C8.38672 13.8242 6.67141 14.1048 6.53992 14.1262V12.8684L1.50671 12.8682ZM2.51062 13.8721H5.54382V21.2021H2.51062V13.8721ZM9.34656 14.7275C12.0423 16.1632 12.3456 16.3822 14.3368 17.5693C14.6517 17.8204 14.7359 18.1289 14.5438 18.4053C14.4397 18.5552 14.3394 18.6083 14.1884 18.6338C14.0373 18.6593 13.8299 18.637 13.5907 18.5303C12.6889 18.1138 12.2065 17.8469 11.2137 17.29L10.7782 17.0459L10.2841 17.917L10.7274 18.1611C11.7228 18.7194 12.2525 19.0108 13.1786 19.4385V19.4463C13.5572 19.6151 13.9592 19.6884 14.3524 19.6221C14.5144 19.5947 14.6245 19.4363 14.7723 19.3564L14.788 19.4014L15.2665 19.2607C17.1318 18.7146 20.2027 17.7602 20.8251 17.5693C21.059 17.4975 21.3736 17.611 21.4677 17.8584C21.5605 18.1093 21.4447 18.3459 21.1884 18.4346C19.6095 18.9796 17.4741 19.6861 15.6063 20.2861C13.7872 20.8705 12.2468 21.3409 11.7606 21.46C9.8929 20.8115 8.03519 20.4009 6.87391 20.0146L6.53992 19.9033V15.1396L6.62195 15.126C6.62195 15.126 8.33512 14.8464 9.34656 14.7275L9.34656 14.7275Z" fill="white"/>
<path d="M16.1234 1.49902C12.7253 1.49902 9.95898 4.26521 9.95898 7.66321C9.95898 11.0613 12.7253 13.8274 16.1234 13.8274C19.5215 13.8274 22.2804 11.0613 22.2804 7.66321C22.2804 4.26521 19.5215 1.49902 16.1234 1.49902ZM16.1234 2.49563C18.981 2.49563 21.2837 4.80567 21.2837 7.66321C21.2837 10.5208 18.981 12.8234 16.1234 12.8234C13.2657 12.8234 10.9556 10.5208 10.9556 7.66321C10.9556 4.80567 13.2657 2.49563 16.1234 2.49563Z" fill="white"/>
<path d="M15.2534 4.67051C14.6718 4.08888 13.7104 4.09413 13.1288 4.67573C12.5472 5.25735 12.5472 6.21344 13.1288 6.79507C13.7104 7.37667 14.6718 7.38191 15.2534 6.80029C15.835 6.21869 15.835 5.25211 15.2534 4.67051ZM14.5435 5.38044C14.7429 5.57982 14.7429 5.89095 14.5435 6.09036C14.3441 6.28974 14.0382 6.28455 13.8388 6.08514C13.6394 5.88576 13.6392 5.5852 13.8388 5.38566C14.0381 5.18628 14.3439 5.18089 14.5435 5.38044Z" fill="white"/>
<path d="M19.1111 8.52793C18.5295 7.94631 17.5681 7.95155 16.9865 8.53315C16.4048 9.11478 16.4048 10.0709 16.9865 10.6525C17.5681 11.2341 18.5242 11.2341 19.1059 10.6525C19.6875 10.0709 19.6927 9.10953 19.1111 8.52793ZM18.4011 9.23786C18.6005 9.43724 18.5953 9.74316 18.3959 9.94256C18.1965 10.1419 17.896 10.1421 17.6964 9.94256C17.497 9.74318 17.4916 9.4374 17.6912 9.23786C17.8906 9.03848 18.2017 9.03842 18.4011 9.23786Z" fill="white"/>
<path d="M17.8878 5.18994L17.5334 5.54406L13.8274 9.24995L13.473 9.60419L14.1817 10.3055L14.5361 9.95127L18.2421 6.24537L18.5965 5.89126L17.8878 5.18994Z" fill="white"/>
</svg>
