<svg width="24" height="24" viewBox="0 0 24 24" fill="none" xmlns="http://www.w3.org/2000/svg">
<path d="M7.05413 2.91937L7.10063 2.99213C6.42803 3.08126 5.75694 3.1814 5.08763 3.2925C4.39725 3.40875 2.91412 3.9585 1.92712 4.34325L1.92113 4.27237L0.75 4.653L1.08675 9.27825L2.33737 9.38475L2.32987 9.29625L5.58787 9.54825C5.64563 13.3961 5.18775 17.9681 4.8765 20.6411L4.76737 20.616L4.68187 22.2979C4.68187 22.2979 7.81575 23.1863 11.997 23.25V21.51L11.9992 5.17313L8.41425 0.75L7.05413 2.91937ZM1.43775 8.93175L1.14563 4.91887L1.58625 4.77525L1.92787 8.97375L1.43775 8.93175ZM11.622 22.8671C8.43525 22.779 5.90025 22.2169 5.07187 22.0118L5.11912 21.0784C6.13462 21.294 8.77163 21.7961 11.622 21.8775V22.8671ZM10.9222 20.5916C10.437 20.5916 10.0425 20.2245 10.0425 19.7719C10.0425 19.3193 10.437 18.9521 10.9222 18.9521C11.4079 18.9521 11.802 19.3193 11.802 19.7719C11.802 20.2245 11.4079 20.5916 10.9222 20.5916ZM10.9222 17.6017C10.437 17.6017 10.0425 17.2346 10.0425 16.7816C10.0425 16.3294 10.437 15.9623 10.9222 15.9623C11.4079 15.9623 11.802 16.3294 11.802 16.7816C11.802 17.2346 11.4079 17.6017 10.9222 17.6017ZM10.9222 14.6122C10.437 14.6122 10.0425 14.2451 10.0425 13.7925C10.0425 13.3399 10.437 12.9724 10.9222 12.9724C11.4079 12.9724 11.802 13.3395 11.802 13.7925C11.802 14.2447 11.4079 14.6122 10.9222 14.6122ZM10.9222 11.622C10.437 11.622 10.0425 11.2552 10.0425 10.8026C10.0425 10.3496 10.437 9.9825 10.9222 9.9825C11.4079 9.9825 11.802 10.3496 11.802 10.8026C11.802 11.2556 11.4079 11.622 10.9222 11.622ZM11.802 7.81275C11.802 8.26537 11.4079 8.6325 10.9222 8.6325C10.437 8.6325 10.0425 8.26537 10.0425 7.81275C10.0425 7.36013 10.437 6.993 10.9222 6.993C11.4079 6.993 11.802 7.36013 11.802 7.81275ZM11.4653 5.11013L9.73837 6.43463L7.49738 2.91788L8.45325 1.39388L11.4653 5.11013Z" fill="white"/>
<path d="M22.0794 4.27237L22.0734 4.34325C21.0864 3.95925 19.6029 3.40875 18.9129 3.2925C18.2436 3.18158 17.5725 3.08144 16.8999 2.99212L16.9464 2.91937L15.5863 0.75H8.41406L10.2819 3.05362H13.7184L11.9991 5.17312L12.4082 5.48662V23.2391C16.3843 23.1262 19.3187 22.2979 19.3187 22.2979L19.2332 20.616L19.1244 20.6415C18.8132 17.9681 18.3546 13.3961 18.4127 9.54825L21.6696 9.29625L21.6621 9.38475L22.9131 9.27825L23.2498 4.653L22.0794 4.27237ZM15.5473 1.3935L16.5032 2.91787L14.2618 6.43462L12.5331 5.10975L15.5473 1.3935ZM18.8814 21.0795L18.9287 22.0114C18.1359 22.2067 15.7806 22.7287 12.7832 22.8506V21.864C15.4543 21.7635 17.9087 21.2891 18.8814 21.0795ZM22.5621 8.93175L22.0716 8.97337L22.4143 4.77562L22.8542 4.91887L22.5621 8.93175Z" fill="white"/>
</svg>
