<svg width="24" height="24" viewBox="0 0 24 24" fill="none" xmlns="http://www.w3.org/2000/svg">
<path fill-rule="evenodd" clip-rule="evenodd" d="M9.43478 1H1V9.43478H9.43478V1ZM0 0V10.4348H10.4348V0H0Z" fill="black"/>
<path fill-rule="evenodd" clip-rule="evenodd" d="M9.43478 14.5652H1V23H9.43478V14.5652ZM0 13.5652V24H10.4348V13.5652H0Z" fill="black"/>
<path fill-rule="evenodd" clip-rule="evenodd" d="M23 1H14.5652V9.43478H23V1ZM13.5652 0V10.4348H24V0H13.5652Z" fill="black"/>
<path d="M18.3276 13.5652H19.2376C19.3185 13.5652 19.359 13.6038 19.359 13.6811V23.884C19.359 23.9613 19.3185 24 19.2376 24H18.3276C18.2467 24 18.2063 23.9613 18.2063 23.884V13.6811C18.2063 13.6038 18.2467 13.5652 18.3276 13.5652Z" fill="black"/>
<path d="M13.6865 18.2319H23.8786C23.9595 18.2319 24 18.2706 24 18.3479V19.2174C24 19.2947 23.9595 19.3334 23.8786 19.3334H13.6865C13.6056 19.3334 13.5652 19.2947 13.5652 19.2174V18.3479C13.5652 18.2706 13.6056 18.2319 13.6865 18.2319Z" fill="black"/>
</svg>
