<svg width="24" height="20" viewBox="0 0 24 20" fill="none" xmlns="http://www.w3.org/2000/svg">
<path d="M22.8 0.399902H1.2C0.537188 0.399902 0 0.93709 0 1.5999V18.3999C0 19.0627 0.537188 19.5999 1.2 19.5999H22.8C23.4628 19.5999 24 19.0627 24 18.3999V1.5999C24 0.93709 23.4628 0.399902 22.8 0.399902ZM4.8 18.3999H1.2V15.9999H4.8V18.3999ZM4.8 14.7999H1.2V12.3999H4.8V14.7999ZM4.8 11.1999H1.2V8.7999H4.8V11.1999ZM4.8 7.5999H1.2V5.1999H4.8V7.5999ZM4.8 3.9999H1.2V1.5999H4.8V3.9999ZM18 18.3999H6V10.5999H18V18.3999ZM18 9.3999H6V1.5999H18V9.3999ZM22.8 18.3999H19.2V15.9999H22.8V18.3999ZM22.8 14.7999H19.2V12.3999H22.8V14.7999ZM22.8 11.1999H19.2V8.7999H22.8V11.1999ZM22.8 7.5999H19.2V5.1999H22.8V7.5999ZM22.8 3.9999H19.2V1.5999H22.8V3.9999Z" fill="white"/>
</svg>
