<svg width="21" height="22" viewBox="0 0 21 22" fill="none" xmlns="http://www.w3.org/2000/svg">
<path d="M11.4133 21.6668H1.93333C1.68232 21.6748 1.43225 21.6323 1.198 21.5418C0.963746 21.4512 0.750087 21.3145 0.569727 21.1398C0.389367 20.965 0.245988 20.7558 0.148115 20.5245C0.0502411 20.2932 -0.000128601 20.0446 2.46572e-07 19.7934V2.2401C0.0191054 1.72842 0.240413 1.24522 0.615363 0.896516C0.990313 0.547812 1.48828 0.362091 2 0.380104H11.48C11.7255 0.374606 11.9695 0.419009 12.1973 0.510622C12.425 0.602235 12.6318 0.73915 12.8051 0.913067C12.9784 1.08698 13.1146 1.29428 13.2054 1.52239C13.2962 1.7505 13.3397 1.99467 13.3333 2.2401V19.7934C13.3325 20.0432 13.2819 20.2902 13.1846 20.5202C13.0872 20.7502 12.945 20.9584 12.7663 21.1328C12.5875 21.3072 12.3758 21.4442 12.1435 21.5359C11.9112 21.6276 11.663 21.6721 11.4133 21.6668ZM1.93333 1.66677C1.85606 1.6641 1.77903 1.67691 1.70678 1.70444C1.63452 1.73197 1.5685 1.77367 1.5126 1.82709C1.4567 1.88051 1.41204 1.94456 1.38126 2.01549C1.35047 2.08642 1.33418 2.16279 1.33333 2.2401V19.7934C1.33333 19.9473 1.39444 20.0948 1.50321 20.2036C1.61198 20.3123 1.75951 20.3734 1.91333 20.3734H11.4133C11.5729 20.3756 11.7273 20.3168 11.845 20.209C11.9627 20.1012 12.0348 19.9526 12.0467 19.7934V2.2401C12.0332 2.08216 11.9604 1.93518 11.8428 1.82879C11.7253 1.72241 11.5718 1.66451 11.4133 1.66677H1.93333Z" fill="white"/>
<path d="M17.6866 21.6667C17.3785 21.6694 17.0729 21.611 16.7875 21.4949C16.5021 21.3788 16.2425 21.2074 16.0237 20.9904C15.8049 20.7735 15.6312 20.5154 15.5127 20.231C15.3942 19.9466 15.3332 19.6415 15.3332 19.3334V14.3334C15.3332 13.9798 15.1927 13.6407 14.9427 13.3906C14.6926 13.1406 14.3535 13.0001 13.9999 13.0001H13.0465C12.8697 13.0001 12.7002 12.9298 12.5751 12.8048C12.4501 12.6798 12.3799 12.5102 12.3799 12.3334C12.3799 12.1566 12.4501 11.987 12.5751 11.862C12.7002 11.737 12.8697 11.6667 13.0465 11.6667H13.9999C14.7071 11.6667 15.3854 11.9477 15.8855 12.4478C16.3856 12.9479 16.6666 13.6262 16.6666 14.3334V19.3334C16.6666 19.5986 16.7719 19.853 16.9594 20.0405C17.147 20.2281 17.4013 20.3334 17.6666 20.3334C17.9318 20.3334 18.1861 20.2281 18.3737 20.0405C18.5612 19.853 18.6666 19.5986 18.6666 19.3334V10.5334L16.5799 5.86675C16.4552 5.60669 16.2594 5.38727 16.0152 5.23389C15.771 5.08051 15.4883 4.99945 15.1999 5.00008H14.7132C14.5364 5.00008 14.3668 4.92984 14.2418 4.80482C14.1168 4.6798 14.0465 4.51023 14.0465 4.33342C14.0465 4.1566 14.1168 3.98703 14.2418 3.86201C14.3668 3.73699 14.5364 3.66675 14.7132 3.66675H15.1999C15.7542 3.66646 16.2967 3.8269 16.7617 4.12862C17.2267 4.43034 17.5943 4.86041 17.8199 5.36675L19.9599 10.1401C19.999 10.2259 20.0194 10.3191 20.0199 10.4134V19.3334C20.0199 19.9523 19.7741 20.5457 19.3365 20.9833C18.8989 21.4209 18.3054 21.6667 17.6866 21.6667Z" fill="white"/>
<path d="M10.0003 5.00008H3.33366C3.15685 5.00008 2.98728 4.92984 2.86225 4.80482C2.73723 4.67979 2.66699 4.51023 2.66699 4.33341C2.66699 4.1566 2.73723 3.98703 2.86225 3.86201C2.98728 3.73699 3.15685 3.66675 3.33366 3.66675H10.0003C10.1771 3.66675 10.3467 3.73699 10.4717 3.86201C10.5968 3.98703 10.667 4.1566 10.667 4.33341C10.667 4.51023 10.5968 4.67979 10.4717 4.80482C10.3467 4.92984 10.1771 5.00008 10.0003 5.00008Z" fill="white"/>
<path d="M10.0003 7.66683H3.33366C3.15685 7.66683 2.98728 7.59659 2.86225 7.47157C2.73723 7.34654 2.66699 7.17697 2.66699 7.00016C2.66699 6.82335 2.73723 6.65378 2.86225 6.52876C2.98728 6.40373 3.15685 6.3335 3.33366 6.3335H10.0003C10.1771 6.3335 10.3467 6.40373 10.4717 6.52876C10.5968 6.65378 10.667 6.82335 10.667 7.00016C10.667 7.17697 10.5968 7.34654 10.4717 7.47157C10.3467 7.59659 10.1771 7.66683 10.0003 7.66683Z" fill="white"/>
<path d="M14.6667 7.05355C14.4899 7.05355 14.3203 6.98331 14.1953 6.85829C14.0702 6.73326 14 6.56369 14 6.38688V2.38688C14 2.21007 14.0702 2.0405 14.1953 1.91548C14.3203 1.79045 14.4899 1.72021 14.6667 1.72021C14.8435 1.72021 15.013 1.79045 15.1381 1.91548C15.2631 2.0405 15.3333 2.21007 15.3333 2.38688V6.38688C15.3333 6.56369 15.2631 6.73326 15.1381 6.85829C15.013 6.98331 14.8435 7.05355 14.6667 7.05355Z" fill="white"/>
</svg>
