<svg width="24" height="22" viewBox="0 0 24 22" fill="none" xmlns="http://www.w3.org/2000/svg">
<path d="M6.30647 8.13677C8.04616 8.13677 9.4548 6.72714 9.4548 4.98549C9.4548 3.90003 9.83692 2.90592 8.99802 2.34207C8.49508 1.99924 6.28682 1.83716 5.63457 1.83716C4.85853 1.83716 3.84969 2.46977 3.30058 2.93637C2.61787 3.51299 3.15618 4.02085 3.15618 4.98451C3.15618 6.72714 4.56384 8.13677 6.30647 8.13677ZM4.11197 4.67704C4.69056 4.57193 5.08349 4.7625 5.08349 4.7625L6.05009 4.29197C6.05009 4.29197 5.55794 5.00317 5.99999 4.7625C6.98427 4.43244 8.08545 4.56997 8.64537 4.67999C8.66502 4.80278 8.6827 4.92851 8.6827 5.05916C8.6827 6.35582 7.65323 7.40396 6.37523 7.40396C5.10411 7.40396 4.07366 6.35582 4.07366 5.05916C4.07366 4.92851 4.09134 4.80278 4.11197 4.67704Z" fill="white"/>
<path d="M21.6756 4.54333C21.6609 4.36356 21.6462 4.18478 21.6069 4.01189C21.4821 2.90777 20.4939 0.664154 17.658 0.730951C15.214 0.788908 14.6806 2.62879 14.5519 3.74863C14.4654 4.02368 14.4094 4.3115 14.3908 4.61111C11.212 5.16612 11.5617 8.39205 13.5028 8.44706C13.3181 6.76238 14.1216 5.7506 14.4311 5.42545C14.7169 7.16514 16.2189 8.50207 18.0381 8.50207C19.7631 8.50207 21.2032 7.3007 21.5931 5.69461C21.8908 6.21916 22.3908 7.29382 22.269 8.44804C25.3269 8.42152 23.822 4.92545 21.6756 4.54333ZM18.0381 7.46474C16.6089 7.46474 15.4458 6.31347 15.4134 4.89009C15.935 4.7005 16.322 3.79677 16.322 3.79677C16.322 3.79677 16.6314 3.90286 16.6314 4.92349C17.1727 5.11209 18.1128 3.33802 18.1128 3.33802V4.73586C18.709 4.89893 20.5892 4.68282 20.5892 4.68282L20.6589 4.74176C20.6599 4.77123 20.6678 4.80168 20.6678 4.83213C20.6698 6.284 19.491 7.46474 18.0381 7.46474Z" fill="white"/>
<path d="M18.8045 8.59644H17.2574H15.9656L12.1827 13.1544L8.52161 8.65341H4.35953L0 13.4393L0.913556 14.3813L4.03438 11.7182V16.8833H4.66012V20.8096H4.26228V21.2703H6.07466V20.8096V16.8833H6.75344V20.8096V21.2703H8.56189V20.8096H8.16503V16.8833H8.92436V11.8155L11.4195 14.3774L12.4391 14.1259L13.0039 14.2674L15.8301 11.0326L15.9912 12.3145L13.3664 16.8253H16.3939V20.7526H15.9961V21.2094H17.8065V20.7526H17.8084V16.8253H18.4853V20.7526V21.2094H20.2967V20.7526H19.8988V16.8253H22.2456L19.9332 12.3145L20.0599 10.7369L22.2692 13.6976L23.7328 13.3332L20.2299 8.59644H18.8045Z" fill="white"/>
</svg>
