<svg width="13" height="22" viewBox="0 0 13 22" fill="none" xmlns="http://www.w3.org/2000/svg">
<path d="M12.3335 13.1002C12.0241 12.5511 11.6053 12.0714 11.1031 11.6907C10.6008 11.31 10.0258 11.0364 9.41355 10.8868C8.8391 10.7145 8.25609 10.5721 7.66688 10.4602V4.4135C8.83829 4.53915 9.95586 4.97146 10.9069 5.66683C10.9725 5.72505 11.049 5.76976 11.132 5.79843C11.2149 5.82709 11.3027 5.83913 11.3903 5.83387C11.4779 5.8286 11.5636 5.80614 11.6425 5.76776C11.7214 5.72937 11.792 5.67582 11.8502 5.61016C11.9084 5.5445 11.9532 5.46802 11.9818 5.38507C12.0105 5.30213 12.0225 5.21436 12.0173 5.12676C12.012 5.03916 11.9895 4.95346 11.9511 4.87455C11.9128 4.79563 11.8592 4.72505 11.7935 4.66683C10.6004 3.7479 9.16764 3.19239 7.66688 3.06683V1.00016C7.66688 0.823352 7.59664 0.653782 7.47162 0.528758C7.3466 0.403734 7.17703 0.333496 7.00021 0.333496C6.8234 0.333496 6.65383 0.403734 6.52881 0.528758C6.40379 0.653782 6.33355 0.823352 6.33355 1.00016V3.00016C3.40021 3.06683 1.78021 4.52683 1.28688 5.78683C0.957772 6.59819 0.926505 7.49987 1.19862 8.33208C1.47074 9.16429 2.02867 9.87331 2.77355 10.3335C3.85781 10.9944 5.07228 11.4129 6.33355 11.5602V17.6668C4.59309 17.5792 2.9258 16.9394 1.57355 15.8402C1.5132 15.7683 1.43838 15.7101 1.35397 15.6692C1.26956 15.6282 1.17746 15.6056 1.0837 15.6027C0.989941 15.5998 0.896626 15.6167 0.809855 15.6524C0.723084 15.688 0.644812 15.7416 0.580154 15.8095C0.515496 15.8775 0.465907 15.9583 0.434631 16.0468C0.403355 16.1352 0.391094 16.2292 0.398651 16.3227C0.406208 16.4162 0.433411 16.5071 0.478484 16.5894C0.523556 16.6716 0.585482 16.7435 0.660215 16.8002C2.25484 18.1427 4.25072 18.9166 6.33355 19.0002V21.0002C6.33355 21.177 6.40379 21.3465 6.52881 21.4716C6.65383 21.5966 6.8234 21.6668 7.00021 21.6668C7.17703 21.6668 7.3466 21.5966 7.47162 21.4716C7.59664 21.3465 7.66688 21.177 7.66688 21.0002V19.0002C9.54688 18.8735 11.7135 18.2735 12.5335 15.8268C12.6819 15.3816 12.7406 14.9115 12.7063 14.4435C12.672 13.9755 12.5453 13.5189 12.3335 13.1002ZM3.52688 9.2135C3.04008 8.92372 2.67261 8.4698 2.49053 7.93334C2.30845 7.39687 2.3237 6.81305 2.53355 6.28683C2.60688 6.08683 3.35355 4.4135 6.33355 4.3335V10.2002C5.33904 10.0722 4.38269 9.73599 3.52688 9.2135ZM11.2669 15.3735C10.7869 16.8002 9.72021 17.4868 7.66688 17.6402V11.8202C8.09355 11.9135 8.53355 12.0202 9.00021 12.1602C9.44105 12.2603 9.85691 12.449 10.2225 12.7149C10.5881 12.9808 10.8958 13.3183 11.1269 13.7068C11.3884 14.2231 11.4386 14.8209 11.2669 15.3735Z" fill="white"/>
</svg>
