<svg width="24" height="22" viewBox="0 0 24 22" fill="none" xmlns="http://www.w3.org/2000/svg">
<path d="M22.6563 9.65885H22.0853V6.22817C22.0853 4.82538 20.9434 3.68838 19.5455 3.68838H19.0189L19.0238 2.41356C19.0238 1.46853 18.2559 0.700684 17.3109 0.700684H2.08203C0.945037 0.700684 0.0147662 1.61619 0 2.75319C0 2.76303 0 2.77287 0 2.78272V19.5867C0 20.5317 0.767842 21.2995 1.71288 21.2995H19.5505C20.9532 21.2995 22.0902 20.1576 22.0902 18.7598V15.3241H22.6612C23.3995 15.3241 24 14.7237 24 13.9853V10.9976C23.9951 10.2593 23.3946 9.65885 22.6563 9.65885ZM2.08203 1.88198H17.3109C17.6013 1.88198 17.8425 2.11824 17.8425 2.40864L17.8376 3.68838H2.08203C1.58491 3.68838 1.1813 3.28477 1.1813 2.78764C1.1813 2.29051 1.58491 1.88198 2.08203 1.88198ZM20.904 18.7548C20.904 19.503 20.2937 20.1133 19.5455 20.1133H1.70796C1.41756 20.1133 1.17637 19.8771 1.17637 19.5817V4.66295C1.45201 4.79584 1.75718 4.86967 2.08203 4.86967H19.5455C20.2937 4.86967 20.904 5.48001 20.904 6.22817V9.65885H16.8728C16.1345 9.65885 15.534 10.2593 15.534 10.9976V13.9853C15.534 14.7237 16.1345 15.3241 16.8728 15.3241H20.904V18.7548ZM22.8138 13.9853C22.8138 14.0739 22.7449 14.1428 22.6563 14.1428H16.8778C16.7892 14.1428 16.7203 14.0739 16.7203 13.9853V10.9976C16.7203 10.914 16.7892 10.8401 16.8778 10.8401H22.6563C22.74 10.8401 22.8138 10.9091 22.8138 10.9976V13.9853Z" fill="white"/>
</svg>
