<svg width="22" height="22" viewBox="0 0 22 22" fill="none" xmlns="http://www.w3.org/2000/svg">
<path d="M7.5 21.5C8.32843 21.5 9 20.8284 9 20C9 19.1716 8.32843 18.5 7.5 18.5C6.67157 18.5 6 19.1716 6 20C6 20.8284 6.67157 21.5 7.5 21.5Z" fill="white"/>
<path d="M18 21.5C18.8284 21.5 19.5 20.8284 19.5 20C19.5 19.1716 18.8284 18.5 18 18.5C17.1716 18.5 16.5 19.1716 16.5 20C16.5 20.8284 17.1716 21.5 18 21.5Z" fill="white"/>
<path d="M21 4.25015H4.365L3.75 1.10015C3.71494 0.928196 3.62068 0.77398 3.48364 0.664348C3.3466 0.554717 3.17546 0.496614 3 0.500153H0V2.00015H2.385L5.25 16.4002C5.28506 16.5721 5.37932 16.7263 5.51636 16.836C5.6534 16.9456 5.82454 17.0037 6 17.0002H19.5V15.5002H6.615L6 12.5002H19.5C19.6734 12.5044 19.8429 12.4484 19.9796 12.3418C20.1163 12.2351 20.2119 12.0843 20.25 11.9152L21.75 5.16515C21.7751 5.05387 21.7745 4.93832 21.7483 4.8273C21.722 4.71628 21.6708 4.61271 21.5985 4.52448C21.5261 4.43625 21.4347 4.36568 21.3309 4.31814C21.2272 4.2706 21.114 4.24735 21 4.25015ZM18.9 11.0002H5.715L4.665 5.75015H20.0625L18.9 11.0002Z" fill="white"/>
</svg>
