<svg width="14" height="23" viewBox="0 0 14 23" fill="none" xmlns="http://www.w3.org/2000/svg">
<path d="M10.8398 9.41007L8.23977 7.91007C5.85977 6.53007 5.03977 3.47007 6.41977 1.09007L4.68976 0.0900718C3.09976 2.83007 3.59977 6.21007 5.65977 8.40007L0.509766 17.3201L2.23977 18.3201L3.73977 15.7201L5.46977 16.7201L2.46977 21.9201L4.19977 22.9201L10.4898 12.0301C11.0659 12.8118 11.402 13.7444 11.457 14.714C11.5121 15.6835 11.2837 16.6481 10.7998 17.4901L12.5298 18.4901C14.1298 15.7401 13.8098 11.9101 10.8398 9.41007V9.41007ZM7.74977 2.80007C8.46977 3.21007 9.37977 2.97007 9.79977 2.25007C10.2098 1.53007 9.96977 0.620072 9.24977 0.200072C8.9054 0.00818844 8.49938 -0.0405206 8.1194 0.0644674C7.73943 0.169455 7.41601 0.419712 7.21901 0.761174C7.02201 1.10264 6.96725 1.50789 7.06656 1.88939C7.16587 2.27089 7.41128 2.598 7.74977 2.80007V2.80007Z" fill="white"/>
</svg>
