<svg width="18" height="22" viewBox="0 0 18 22" fill="none" xmlns="http://www.w3.org/2000/svg">
<path d="M3.375 0.3875L3.37494 0.3875C2.61604 0.388359 1.88846 0.690212 1.35184 1.22684C0.815212 1.76346 0.513359 2.49104 0.5125 3.24994V3.25L0.5125 15.25L0.5125 15.2501C0.513359 16.009 0.815212 16.7365 1.35184 17.2732C1.88846 17.8098 2.61604 18.1116 3.37494 18.1125H3.375H4.775L3.26 20.1325C3.21174 20.1968 3.17663 20.2701 3.15666 20.348C3.1367 20.4259 3.13228 20.507 3.14366 20.5866C3.15503 20.6662 3.18198 20.7429 3.22296 20.8121C3.26394 20.8813 3.31815 20.9417 3.3825 20.99C3.44685 21.0383 3.52007 21.0734 3.59799 21.0933C3.67591 21.1133 3.75699 21.1177 3.83662 21.1063C3.91625 21.095 3.99285 21.068 4.06206 21.027C4.13128 20.9861 4.19174 20.9318 4.24 20.8675L6.30625 18.1125H11.6937L13.76 20.8675C13.8083 20.9318 13.8687 20.9861 13.9379 21.027C14.0071 21.068 14.0838 21.095 14.1634 21.1063C14.243 21.1177 14.3241 21.1133 14.402 21.0933C14.4799 21.0734 14.5532 21.0383 14.6175 20.99C14.6818 20.9417 14.7361 20.8813 14.777 20.8121C14.818 20.7429 14.845 20.6662 14.8563 20.5866C14.8677 20.507 14.8633 20.4259 14.8433 20.348C14.8234 20.2701 14.7883 20.1968 14.74 20.1325L13.225 18.1125H14.625H14.6251C15.384 18.1116 16.1115 17.8098 16.6482 17.2732C17.1848 16.7365 17.4866 16.009 17.4875 15.2501V15.25V3.25V3.24994C17.4866 2.49104 17.1848 1.76346 16.6482 1.22684C16.1115 0.690212 15.384 0.388359 14.6251 0.3875L14.625 0.4375V0.3875L3.375 0.3875ZM3.37506 1.6125H14.6249C15.0591 1.61298 15.4753 1.78566 15.7823 2.09266C16.0893 2.39966 16.262 2.8159 16.2625 3.25006V4.1375H1.7375V3.25006C1.73798 2.8159 1.91066 2.39966 2.21766 2.09266C2.52466 1.78566 2.9409 1.61298 3.37506 1.6125ZM14.6249 16.8875H3.37506C2.9409 16.887 2.52466 16.7143 2.21766 16.4073C1.91066 16.1003 1.73798 15.6841 1.7375 15.2499V10.6125H16.2625V15.2499C16.262 15.6841 16.0893 16.1003 15.7823 16.4073C15.4753 16.7143 15.0591 16.887 14.6249 16.8875ZM4.87506 13.1375H4.875C4.67969 13.1375 4.48877 13.1954 4.32637 13.3039C4.16398 13.4124 4.03741 13.5667 3.96267 13.7471C3.88793 13.9275 3.86837 14.1261 3.90647 14.3177C3.94458 14.5092 4.03863 14.6852 4.17673 14.8233C4.31484 14.9614 4.49079 15.0554 4.68235 15.0935C4.8739 15.1316 5.07246 15.1121 5.2529 15.0373C5.43334 14.9626 5.58757 14.836 5.69608 14.6736C5.80458 14.5112 5.8625 14.3203 5.8625 14.125H5.8125L5.8625 14.1249C5.86219 13.8632 5.75805 13.6122 5.57294 13.4271C5.38783 13.2419 5.13685 13.1378 4.87506 13.1375ZM13.1251 13.1375H13.125C12.9297 13.1375 12.7388 13.1954 12.5764 13.3039C12.414 13.4124 12.2874 13.5667 12.2127 13.7471C12.1379 13.9275 12.1184 14.1261 12.1565 14.3177C12.1946 14.5092 12.2886 14.6852 12.4267 14.8233C12.5648 14.9614 12.7408 15.0554 12.9323 15.0935C13.1239 15.1316 13.3225 15.1121 13.5029 15.0373C13.6833 14.9626 13.8376 14.836 13.9461 14.6736C14.0546 14.5112 14.1125 14.3203 14.1125 14.125H14.0625L14.1125 14.1249C14.1122 13.8632 14.0081 13.6122 13.8229 13.4271C13.6378 13.2419 13.3868 13.1378 13.1251 13.1375ZM1.7375 9.3875V5.3625H8.3875V9.3875H1.7375ZM9.6125 5.3625H16.2625V9.3875H9.6125V5.3625Z" fill="white" stroke="white" stroke-width="0.1"/>
</svg>
