<svg width="22" height="22" viewBox="0 0 22 22" fill="none" xmlns="http://www.w3.org/2000/svg">
<path d="M4.47588 2.13617L4.47609 2.13622L14.323 4.59791L17.3339 1.58739C17.7449 1.17626 18.2921 0.95 18.8741 0.95H18.8741H18.8741H18.8742H18.8742H18.8742H18.8742H18.8742H18.8742H18.8742H18.8743H18.8743C19.4559 0.95 20.0027 1.17602 20.4135 1.58683C21.2625 2.43559 21.2621 3.81702 20.4129 4.66625L17.3681 7.71107L19.5652 17.2312L19.5652 17.2313C19.6019 17.3912 19.5538 17.5585 19.438 17.6744L17.9338 19.1786L17.9337 19.1786L17.8984 19.1432C17.7999 19.242 17.658 19.2858 17.5217 19.2611C17.3844 19.2361 17.2681 19.1455 17.2103 19.0184L4.47588 2.13617ZM4.47588 2.13617C4.31457 2.09655 4.14287 2.14308 4.02455 2.26131L4.02454 2.26132M4.47588 2.13617L4.02454 2.26132M4.02454 2.26132L2.52058 3.76527C2.41096 3.87468 2.3618 4.0307 2.38824 4.18315L2.38825 4.18324M4.02454 2.26132L2.38825 4.18324M2.38825 4.18324C2.41496 4.33571 2.51404 4.46572 2.6543 4.53165L2.67559 4.48641M2.38825 4.18324L2.5559 3.80066C2.45786 3.89852 2.41383 4.03812 2.4375 4.17461C2.46141 4.31109 2.55008 4.42742 2.67559 4.48641M2.67559 4.48641L2.65433 4.53166M2.67559 4.48641L2.65433 4.53166M2.65433 4.53166L10.634 8.28694M2.65433 4.53166L10.634 8.28694M10.634 8.28694L7.10816 11.8127L2.33471 12.5079L2.33468 12.5079C2.23324 12.5227 2.13944 12.5699 2.06703 12.6423L1.08922 13.6199L1.08921 13.6199C0.970824 13.7383 0.923458 13.9103 0.964531 14.0726C0.964533 14.0726 0.964534 14.0726 0.964536 14.0726L1.01301 14.0604M10.634 8.28694L6.2536 16.4482M1.01301 14.0604C1.04976 14.2058 1.16031 14.3211 1.30383 14.3639L5.48599 15.6101M1.01301 14.0604C0.976249 13.9152 1.01863 13.7612 1.12457 13.6553L2.10239 12.6777L1.01301 14.0604ZM5.48599 15.6101L5.45064 15.6454L5.45959 15.6544L5.47172 15.658L5.48599 15.6101ZM5.48599 15.6101L6.29764 16.4215M6.29764 16.4215L6.24992 16.4364L6.2536 16.4482M6.29764 16.4215L6.26229 16.4568L6.2536 16.4482M6.29764 16.4215L6.2536 16.4482M6.2536 16.4482L7.59024 20.7166C7.63991 20.8754 7.76896 20.9966 7.9303 21.0363C7.96804 21.0456 8.00614 21.05 8.0439 21.05C8.16851 21.05 8.28992 21.0011 8.38008 20.9107L6.2536 16.4482ZM16.3822 7.66812L16.3822 7.66806C16.3455 7.50818 16.3935 7.34082 16.5094 7.22496L19.7405 3.99382C20.219 3.51536 20.2191 2.73706 19.7411 2.25891C19.51 2.02777 19.2022 1.90047 18.8741 1.90047C18.5458 1.90047 18.2378 2.02795 18.0062 2.25954L14.805 5.46052L14.805 5.46055L14.7696 5.4252L16.3822 7.66812ZM16.3822 7.66812L18.5792 17.1883M16.3822 7.66812L18.5792 17.1883M18.5792 17.1883L17.7465 18.0211L14.2698 10.3729C14.2698 10.3729 14.2698 10.3729 14.2698 10.3729C14.2052 10.2308 14.0753 10.1296 13.9218 10.1017M18.5792 17.1883L13.5362 10.2687L13.5008 10.2334C13.6109 10.1231 13.769 10.0739 13.9218 10.1017M13.9218 10.1017C13.9218 10.1017 13.9218 10.1017 13.9218 10.1017L13.9129 10.1509L13.9218 10.1017ZM7.12605 16.0526L8.26301 19.683L8.57368 19.372L7.12605 16.0526ZM7.12605 16.0526C7.10327 15.9794 7.06286 15.9128 7.00854 15.8585L6.04702 14.897M7.12605 16.0526L6.04702 14.897M6.04702 14.897C5.99125 14.8409 5.92224 14.7998 5.84659 14.7773L6.04702 14.897ZM3.67129 3.95938L11.6509 7.71472L11.6509 7.71472C11.7909 7.78063 11.8902 7.91061 11.917 8.06313L11.917 8.0632C11.9434 8.21566 11.8942 8.37162 11.7847 8.48102L3.67129 3.95938ZM3.67129 3.95938L4.50653 3.12397L3.67129 3.95938ZM10.1873 14.8919L13.6881 11.3909L8.38012 20.9107L9.3577 19.9329C9.4301 19.8605 9.47725 19.7667 9.49209 19.6652L9.49209 19.6652L10.1873 14.8919ZM2.62769 13.4263L7.40129 12.7311L7.40133 12.7311C7.50276 12.7162 7.59657 12.6691 7.66898 12.5967L11.7846 8.48105L2.62769 13.4263Z" fill="white" stroke="white" stroke-width="0.1"/>
</svg>
