<svg width="30" height="30" viewBox="0 0 30 30" fill="none" xmlns="http://www.w3.org/2000/svg">
<path d="M27 5.33333H23.121L19.0605 1.42322C18.9214 1.28883 18.7562 1.18225 18.5741 1.10961C18.3921 1.03698 18.197 0.999726 18 1H12C11.803 0.999726 11.6079 1.03698 11.4259 1.10961C11.2438 1.18225 11.0786 1.28883 10.9395 1.42322L6.879 5.33333H3C1.3455 5.33333 0 6.629 0 8.22222V24.1111C0 25.7043 1.3455 27 3 27H27C28.6545 27 30 25.7043 30 24.1111V8.22222C30 6.629 28.6545 5.33333 27 5.33333ZM15 22.6667C10.935 22.6667 7.5 19.3589 7.5 15.4444C7.5 11.5286 10.935 8.22222 15 8.22222C19.065 8.22222 22.5 11.5286 22.5 15.4444C22.5 19.3589 19.065 22.6667 15 22.6667Z" fill="white"/>
<path d="M16.5 11.1111H13.5V14H10.5V16.8889H13.5V19.7777H16.5V16.8889H19.5V14H16.5V11.1111Z" fill="white"/>
</svg>
