<svg width="21" height="17" viewBox="0 0 21 17" fill="none" xmlns="http://www.w3.org/2000/svg">
<path d="M20.25 16.5H0.75C0.551088 16.5 0.360322 16.421 0.21967 16.2803C0.0790176 16.1397 0 15.9489 0 15.75V3C0 2.80109 0.0790176 2.61032 0.21967 2.46967C0.360322 2.32902 0.551088 2.25 0.75 2.25H5.595L6.8775 0.3375C6.94544 0.234329 7.03781 0.149538 7.14641 0.0906597C7.25501 0.0317814 7.37647 0.000639089 7.5 0H13.5C13.6235 0.000639089 13.745 0.0317814 13.8536 0.0906597C13.9622 0.149538 14.0546 0.234329 14.1225 0.3375L15.405 2.25H20.25C20.4489 2.25 20.6397 2.32902 20.7803 2.46967C20.921 2.61032 21 2.80109 21 3V15.75C21 15.9489 20.921 16.1397 20.7803 16.2803C20.6397 16.421 20.4489 16.5 20.25 16.5ZM1.5 15H19.5V3.75H15C14.8765 3.74936 14.755 3.71822 14.6464 3.65934C14.5378 3.60046 14.4454 3.51567 14.3775 3.4125L13.095 1.5H7.905L6.6225 3.4125C6.55456 3.51567 6.46219 3.60046 6.35359 3.65934C6.24499 3.71822 6.12353 3.74936 6 3.75H1.5V15Z" fill="white"/>
<path d="M10.5 13.5C9.60999 13.5 8.73996 13.2361 7.99994 12.7416C7.25991 12.2471 6.68314 11.5443 6.34254 10.7221C6.00195 9.89981 5.91283 8.99501 6.08647 8.1221C6.2601 7.24918 6.68869 6.44736 7.31802 5.81802C7.94736 5.18869 8.74918 4.7601 9.6221 4.58647C10.495 4.41283 11.3998 4.50195 12.2221 4.84254C13.0443 5.18314 13.7471 5.75991 14.2416 6.49994C14.7361 7.23996 15 8.10999 15 9C15 10.1935 14.5259 11.3381 13.682 12.182C12.8381 13.0259 11.6935 13.5 10.5 13.5ZM10.5 6C9.90666 6 9.32664 6.17595 8.83329 6.50559C8.33994 6.83524 7.95543 7.30377 7.72836 7.85195C7.5013 8.40013 7.44189 9.00333 7.55765 9.58527C7.6734 10.1672 7.95912 10.7018 8.37868 11.1213C8.79824 11.5409 9.33279 11.8266 9.91473 11.9424C10.4967 12.0581 11.0999 11.9987 11.6481 11.7716C12.1962 11.5446 12.6648 11.1601 12.9944 10.6667C13.3241 10.1734 13.5 9.59335 13.5 9C13.5 8.20435 13.1839 7.44129 12.6213 6.87868C12.0587 6.31607 11.2957 6 10.5 6Z" fill="white"/>
</svg>
