<svg width="24" height="24" viewBox="0 0 24 24" fill="none" xmlns="http://www.w3.org/2000/svg">
<path d="M8.20579 8.4008C9.12952 8.4008 9.95588 8.15181 10.5528 7.74093C11.1497 7.33002 11.5202 6.75438 11.5202 6.10367C11.5202 5.45285 11.1497 4.87713 10.5528 4.46616C9.95588 4.05522 9.12952 3.8062 8.20579 3.8062C7.28207 3.8062 6.4557 4.05521 5.85883 4.46613C5.26189 4.8771 4.89141 5.45282 4.89141 6.10367C4.89141 6.75438 5.2619 7.33002 5.85883 7.74093C6.45571 8.15181 7.28207 8.4008 8.20579 8.4008ZM8.20579 4.9186C8.79896 4.9186 9.35417 5.06123 9.75946 5.28324C10.1676 5.50683 10.4104 5.8025 10.4104 6.1036C10.4104 6.43795 10.1362 6.73379 9.71042 6.94918C9.28782 7.16297 8.73204 7.28827 8.20579 7.28827C7.54926 7.28827 6.99464 7.12742 6.60576 6.89689C6.21412 6.66473 6.00122 6.36929 6.00122 6.1036C6.00122 5.8025 6.24397 5.50683 6.65215 5.28324C7.05745 5.06122 7.61266 4.9186 8.20579 4.9186Z" fill="#FE7317" stroke="#FE7317" stroke-width="0.1"/>
<path d="M14.0904 10.9056C14.0898 10.9059 14.0888 10.9064 14.0874 10.9069L14.0904 10.9056ZM14.0904 10.9056L14.0904 10.9056L14.0905 10.9055C14.0905 10.9055 14.0904 10.9056 14.0904 10.9056ZM1.95027 6.09801C1.95027 6.09749 1.95029 6.09707 1.95029 6.09707C1.95029 6.09707 1.95028 6.09727 1.95025 6.09778L1.95024 6.09795C1.95017 6.09891 1.95 6.1014 1.95 6.10419V6.10698V6.11V6.11326V6.11675V6.12048V6.12443V6.12861V6.13303V6.13767V6.14254V6.14763V6.15296V6.1585V6.16427V6.17026V6.17648V6.18291V6.18957V6.19644V6.20353V6.21084V6.21837V6.22611V6.23406V6.24223V6.25062V6.25921V6.26801V6.27703V6.28625V6.29568V6.30532V6.31517V6.32522V6.33548V6.34594V6.3566V6.36746V6.37852V6.38979V6.40125V6.41291V6.42477V6.43683V6.44908V6.46152V6.47416V6.48699V6.50001V6.51322V6.52663V6.54022V6.554V6.56797V6.58212V6.59646V6.61098V6.62569V6.64058V6.65565V6.6709V6.68633V6.70194V6.71773V6.73369V6.74983V6.76615V6.78264V6.7993V6.81614V6.83315V6.85033V6.86767V6.88519V6.90288V6.92073V6.93875V6.95693V6.97528V6.99379V7.01246V7.0313V7.05029V7.06945V7.08876V7.10823V7.12786V7.14765V7.16759V7.18768V7.20793V7.22833V7.24888V7.26958V7.29043V7.31143V7.33258V7.35387V7.37532V7.3969V7.41863V7.4405V7.46252V7.48468V7.50697V7.52941V7.55199V7.5747V7.59755V7.62054V7.64366V7.66691V7.6903V7.71382V7.73747V7.76125V7.78517V7.80921V7.83337V7.85767V7.88209V7.90664V7.93131V7.9561V7.98101V8.00605V8.03121V8.05648V8.08188V8.10739V8.13302V8.15876V8.18462V8.2106V8.23668V8.26288V8.28919V8.31561V8.34214V8.36878V8.39552V8.42238V8.44934V8.4764V8.50356V8.53083V8.55821V8.58568V8.61325V8.64093V8.6687V8.69657V8.72453V8.75259V8.78075V8.809V8.83734V8.86577V8.8943V8.92291V8.95162V8.98041V9.00929V9.03826V9.06731V9.09645V9.12567V9.15498V9.18436V9.21383V9.24338V9.27301V9.30271V9.33249V9.36235V9.39229V9.4223V9.45238V9.48253V9.51276V9.54306V9.57343V9.60387V9.63437V9.66495V9.69559V9.72629V9.75706V9.78789V9.81879V9.84975V9.88077V9.91185V9.94299V9.97418V10.0054V10.0367V10.0681V10.0995V10.131V10.1625V10.1941V10.2257V10.2574V10.2891V10.3209V10.3527V10.3846V10.4165V10.4485V10.4805V10.5125V10.5446V10.5768V10.6089V10.6411V10.6734V10.7057V10.738V10.7703V10.8027V10.8351V10.8676V10.9001V10.9326V10.9651V10.9977V11.0303V11.063V11.0956V11.1283V11.161V11.1937V11.2265V11.2593V11.2921V11.3249V11.3577V11.3906V11.4234V11.4563V11.4892V11.5221V11.5551V11.588V11.6209V11.6539V11.6869V11.7199V11.7528V11.7858V11.8188V11.8519V11.8849V11.9179V11.9509V11.9839V12.0169V12.05V12.083V12.116V12.149V12.182V12.215V12.248V12.281V12.314V12.347V12.3799V12.4129V12.4458V12.4788V12.5117V12.5446V12.5775V12.6103V12.6432V12.676V12.7089V12.7417V12.7744V12.8072V12.8399V12.8726V12.9053V12.938V12.9706V13.0032V13.0358V13.0684V13.1009V13.1334V13.1659V13.1983V13.2307V13.2631V13.2954V13.3277V13.3599V13.3922V13.4243V13.4565V13.4886V13.5206V13.5526V13.5846V13.6165V13.6484V13.6803V13.7121V13.7438V13.7755V13.8071V13.8387V13.8703V13.9018V13.9332V13.9646V13.9959V14.0272V14.0584V14.0895V14.1206V14.1517V14.1826V14.2136V14.2444V14.2752V14.3059V14.3366V14.3672V14.3977V14.4282V14.4585V14.4889V14.5191V14.5493V14.5794V14.6094V14.6394V14.6693V14.6991V14.7288V14.7584V14.788V14.8175V14.8469V14.8762V14.9055V14.9346V14.9637V14.9927V15.0216V15.0504V15.0792V15.1078V15.1364V15.1648V15.1932V15.2215V15.2496V15.2777V15.3057V15.3336V15.3614V15.3891V15.4167V15.4442V15.4716V15.4989V15.5261V15.5532V15.5802V15.6071V15.6339V15.6605V15.6871V15.7135V15.7399V15.7661V15.7922V15.8182V15.8441V15.8699V15.8956V15.9211V15.9465V15.9719V15.997V16.0221V16.0471V16.0719V16.0966V16.1212V16.1456V16.17V16.1942V16.2182V16.2422V16.266V16.2897V16.3133V16.3367V16.36V16.3831V16.4062V16.4291V16.4518V16.4744V16.4969V16.5192V16.5414V16.5635V16.5854V16.6072V16.6288V16.6503V16.6716V16.6928V16.7139V16.7347V16.7555V16.7761V16.7965V16.8168V16.837V16.8569V16.8768V16.8964V16.916V16.9353V16.9545V16.9736V16.9924V17.0112V17.0297V17.0481V17.0663V17.0844V17.1023V17.12V17.1376V17.155V17.1722V17.1893V17.2062V17.2229V17.2394V17.2558V17.272V17.288V17.3038V17.3195V17.335V17.3503V17.3654V17.3803V17.3951V17.4097V17.4241V17.4383V17.4523V17.4661V17.4798V17.4932V17.5065V17.5196V17.5325V17.5451V17.5576V17.57V17.5821V17.594V17.6057V17.6172V17.6285V17.6397V17.6506V17.6613V17.6718V17.6821V17.6922V17.7021V17.7118V17.7213V17.7306V17.7397V17.7486V17.7572V17.7656V17.7739V17.7819V17.7897V17.7973V17.8047V17.8118V17.8187V17.8255V17.832V17.8382V17.8443V17.8501V17.8557V17.8611V17.8663V17.8712V17.8759V17.8804V17.8846V17.8887V17.8925V17.896C1.95 19.765 3.61458 21.1132 5.73406 21.7076C7.8468 22.3001 10.4368 22.153 12.3576 21.0169C16.4339 23.7154 22.05 20.8337 22.05 15.7765C22.0499 11.6818 18.2593 8.80125 14.4629 9.64495C14.463 9.46261 14.463 9.31315 14.4628 7.9687C14.4627 7.50764 14.4627 6.90604 14.4625 6.11437L14.4626 6.11056L14.4627 6.10385C14.4627 4.90795 13.7376 3.86818 12.597 3.12972C11.4562 2.39115 9.8948 1.95 8.20644 1.95C6.51835 1.95 4.95822 2.39076 3.81797 3.12841C2.67789 3.86595 1.95267 4.90425 1.95027 6.09801ZM1.95027 6.09801C1.95027 6.09805 1.95027 6.09808 1.95027 6.09811V6.09801ZM13.3522 6.11766L13.3522 6.11795C13.3455 6.92744 12.7658 7.68321 11.8267 8.23937C10.8891 8.79463 9.60262 9.14456 8.20631 9.14456C6.8057 9.14456 5.51565 8.79257 4.57736 8.2345C3.63754 7.67553 3.05988 6.9163 3.05988 6.10392C3.05991 5.29129 3.63762 4.53187 4.57745 3.97275C5.51576 3.41454 6.8058 3.06246 8.20637 3.06246C9.60648 3.06246 10.8961 3.41428 11.8343 3.97211C12.7733 4.53047 13.3511 5.28878 13.3528 6.10037L13.3527 6.10419L13.3525 6.10894L13.3522 6.11766ZM13.3529 6.09891C13.3529 6.09841 13.353 6.09823 13.3529 6.09857L13.3529 6.09891ZM3.06992 14.4805L3.06992 14.4805C3.06828 14.4644 3.06689 14.4521 3.0657 14.4398C3.05691 14.3486 3.05962 14.2563 3.05974 12.6003C4.75613 14.1682 7.48493 14.5983 9.73099 14.2327C9.49252 15.1822 9.46495 16.196 9.7012 17.2054C8.28209 17.465 6.68303 17.3038 5.4086 16.8192C4.11558 16.3275 3.17432 15.5108 3.06992 14.4805ZM12.7076 19.9053L12.7075 19.9053C9.39754 17.4146 10.2509 12.2607 14.0844 10.9082L14.0844 10.9082L14.0863 10.9074L14.0864 10.9074L14.0877 10.907L14.0918 10.9055C17.4227 9.73295 20.9401 12.2042 20.9401 15.7765C20.9401 20.0977 16.0253 22.4045 12.7076 19.9053ZM3.05974 10.2013V8.48491C4.36344 9.7308 6.39648 10.257 8.20637 10.257C9.99849 10.257 12.0444 9.73507 13.353 8.48497C13.3531 8.86581 13.3533 9.70481 13.3527 9.99986C11.9243 10.6061 10.8168 11.7139 10.1817 13.0038C8.50157 13.4289 6.72048 13.258 5.35873 12.7145C3.98707 12.1669 3.05974 11.2505 3.05974 10.2013ZM3.05974 17.896V16.6828C3.90196 17.4831 5.05498 17.9946 6.28347 18.2509C7.53992 18.5131 8.8789 18.5091 10.0527 18.2714C10.3786 19.0262 10.8552 19.7089 11.4193 20.2611C9.79336 21.0566 7.71504 21.1036 6.03451 20.6339C5.1837 20.396 4.43828 20.0267 3.90656 19.5584C3.37516 19.0903 3.05974 18.5262 3.05974 17.896Z" fill="#FE7317" stroke="#FE7317" stroke-width="0.1"/>
<path d="M15.7935 11.5958C13.4944 11.5958 11.6238 13.471 11.6238 15.7767C11.6238 18.0815 13.494 19.9568 15.7933 19.9568C18.0927 19.9568 19.9636 18.0819 19.9636 15.7766C19.9636 13.4713 18.0931 11.5958 15.7935 11.5958ZM15.7935 18.8443C14.1066 18.8443 12.7339 17.4682 12.7339 15.7766C12.7339 14.0844 14.1068 12.7083 15.7932 12.7083C17.4805 12.7083 18.8534 14.0847 18.8534 15.7767C18.8534 17.4679 17.4808 18.8443 15.7935 18.8443Z" fill="#FE7317" stroke="#FE7317" stroke-width="0.1"/>
<path d="M16.4628 14.8899L16.4628 14.8899C16.3387 14.8153 16.2189 14.7595 16.1006 14.7245V15.4394C16.4079 15.52 16.636 15.6256 16.7889 15.7707C16.9502 15.9239 17.0234 16.1168 17.0234 16.3565L16.4628 14.8899ZM16.4628 14.8899C16.544 14.9387 16.6262 14.9474 16.6984 14.9262C16.7695 14.9052 16.8272 14.8562 16.8631 14.7961C16.8991 14.7359 16.9148 14.6621 16.8987 14.5899C16.8825 14.5169 16.8347 14.4501 16.7525 14.4034C16.5627 14.2836 16.3569 14.2026 16.1176 14.1679M16.4628 14.8899L16.1176 14.1679M16.1176 14.1679V14.1179C16.1176 13.9881 16.0145 13.8846 15.8847 13.8846C15.7564 13.8846 15.6476 13.9866 15.6476 14.1179V14.162C15.393 14.1903 15.1755 14.2808 15.0183 14.4224C14.851 14.5731 14.7545 14.7795 14.7545 15.0219C14.7545 15.2743 14.831 15.4675 14.9927 15.6176C15.1454 15.7593 15.3702 15.8587 15.6646 15.9387V16.6789C15.4657 16.6331 15.2933 16.5436 15.1152 16.4146C14.9437 16.2817 14.6609 16.3908 14.6609 16.6422C14.6609 16.7502 14.7134 16.8332 14.7977 16.8882C15.0514 17.0673 15.3373 17.1832 15.6475 17.2238V17.4437C15.6475 17.5175 15.6766 17.5766 15.7224 17.6167C15.7671 17.656 15.8254 17.6751 15.882 17.6756C15.9387 17.6762 15.9973 17.6582 16.0425 17.6189C16.0887 17.5787 16.1175 17.5189 16.1175 17.4437V17.2327C16.3761 17.2009 16.597 17.1093 16.7564 16.966C16.9259 16.8137 17.0234 16.6051 17.0234 16.3565L16.1176 14.1679ZM15.6646 14.6908V15.3184C15.5428 15.2736 15.4686 15.2293 15.4237 15.1828C15.3741 15.1313 15.3564 15.0729 15.3564 14.9921C15.3564 14.9112 15.3853 14.8417 15.4424 14.7889C15.4916 14.7434 15.5647 14.7078 15.6646 14.6908ZM16.1006 16.6997V16.0506C16.2235 16.0942 16.3007 16.1388 16.3484 16.187C16.4012 16.2405 16.4216 16.3022 16.4216 16.3864C16.4216 16.4754 16.3898 16.5468 16.33 16.6001C16.278 16.6464 16.2019 16.6815 16.1006 16.6997Z" fill="#FE7317" stroke="#FE7317" stroke-width="0.1"/>
</svg>
