<svg width="24" height="24" viewBox="0 0 24 24" fill="none" xmlns="http://www.w3.org/2000/svg">
<path d="M10.5686 2.53803C10.9619 2.19163 11.472 2 12.0007 2C12.5295 2 13.0395 2.19163 13.4329 2.53803L21.29 9.45858C21.5134 9.6555 21.6921 9.89628 21.8144 10.1653C21.9367 10.4343 21.9999 10.7255 22 11.02V20.8995C22 21.4566 21.7742 21.9908 21.3724 22.3848C20.9705 22.7787 20.4255 23 19.8571 23H16.2857C15.7174 23 15.1723 22.7787 14.7705 22.3848C14.3686 21.9908 14.1429 21.4566 14.1429 20.8995V15.9982C14.1429 15.8125 14.0676 15.6344 13.9336 15.5031C13.7997 15.3718 13.618 15.2981 13.4286 15.2981H10.5714C10.382 15.2981 10.2003 15.3718 10.0664 15.5031C9.9324 15.6344 9.85714 15.8125 9.85714 15.9982V20.8995C9.85714 21.4566 9.63138 21.9908 9.22952 22.3848C8.82765 22.7787 8.28261 23 7.71429 23H4.14286C3.57454 23 3.02949 22.7787 2.62763 22.3848C2.22576 21.9908 2 21.4566 2 20.8995V11.02C2 10.4248 2.25714 9.85768 2.71143 9.45858L10.5686 2.53803ZM12.4771 3.57989C12.3461 3.46455 12.1761 3.40076 12 3.40076C11.8239 3.40076 11.6539 3.46455 11.5229 3.57989L3.66571 10.5004C3.59128 10.5659 3.53171 10.646 3.49086 10.7355C3.45001 10.825 3.42879 10.9219 3.42857 11.02V20.8995C3.42857 21.0852 3.50383 21.2633 3.63778 21.3946C3.77174 21.5259 3.95342 21.5996 4.14286 21.5996H7.71429C7.90373 21.5996 8.08541 21.5259 8.21936 21.3946C8.35332 21.2633 8.42857 21.0852 8.42857 20.8995V15.9982C8.42857 15.4411 8.65434 14.9069 9.0562 14.5129C9.45806 14.119 10.0031 13.8977 10.5714 13.8977H13.4286C13.9969 13.8977 14.5419 14.119 14.9438 14.5129C15.3457 14.9069 15.5714 15.4411 15.5714 15.9982V20.8995C15.5714 21.0852 15.6467 21.2633 15.7806 21.3946C15.9146 21.5259 16.0963 21.5996 16.2857 21.5996H19.8571C20.0466 21.5996 20.2283 21.5259 20.3622 21.3946C20.4962 21.2633 20.5714 21.0852 20.5714 20.8995V11.02C20.5712 10.9219 20.55 10.825 20.5091 10.7355C20.4683 10.646 20.4087 10.5659 20.3343 10.5004L12.4771 3.57989Z" fill="white"/>
<path d="M10.5686 2.53803C10.9619 2.19163 11.472 2 12.0007 2C12.5295 2 13.0395 2.19163 13.4329 2.53803L21.29 9.45858C21.5134 9.6555 21.6921 9.89628 21.8144 10.1653C21.9367 10.4343 21.9999 10.7255 22 11.02V20.8995C22 21.4566 21.7742 21.9908 21.3724 22.3848C20.9705 22.7787 20.4255 23 19.8571 23H16.2857C15.7174 23 15.1723 22.7787 14.7705 22.3848C14.3686 21.9908 14.1429 21.4566 14.1429 20.8995V15.9982C14.1429 15.8125 14.0676 15.6344 13.9336 15.5031C13.7997 15.3718 13.618 15.2981 13.4286 15.2981H10.5714C10.382 15.2981 10.2003 15.3718 10.0664 15.5031C9.9324 15.6344 9.85714 15.8125 9.85714 15.9982V20.8995C9.85714 21.4566 9.63138 21.9908 9.22952 22.3848C8.82765 22.7787 8.28261 23 7.71429 23H4.14286C3.57454 23 3.02949 22.7787 2.62763 22.3848C2.22576 21.9908 2 21.4566 2 20.8995V11.02C2 10.4248 2.25714 9.85768 2.71143 9.45858L10.5686 2.53803ZM12.4771 3.57989C12.3461 3.46455 12.1761 3.40076 12 3.40076C11.8239 3.40076 11.6539 3.46455 11.5229 3.57989L3.66571 10.5004C3.59128 10.5659 3.53171 10.646 3.49086 10.7355C3.45001 10.825 3.42879 10.9219 3.42857 11.02V20.8995C3.42857 21.0852 3.50383 21.2633 3.63778 21.3946C3.77174 21.5259 3.95342 21.5996 4.14286 21.5996H7.71429C7.90373 21.5996 8.08541 21.5259 8.21936 21.3946C8.35332 21.2633 8.42857 21.0852 8.42857 20.8995V15.9982C8.42857 15.4411 8.65434 14.9069 9.0562 14.5129C9.45806 14.119 10.0031 13.8977 10.5714 13.8977H13.4286C13.9969 13.8977 14.5419 14.119 14.9438 14.5129C15.3457 14.9069 15.5714 15.4411 15.5714 15.9982V20.8995C15.5714 21.0852 15.6467 21.2633 15.7806 21.3946C15.9146 21.5259 16.0963 21.5996 16.2857 21.5996H19.8571C20.0466 21.5996 20.2283 21.5259 20.3622 21.3946C20.4962 21.2633 20.5714 21.0852 20.5714 20.8995V11.02C20.5712 10.9219 20.55 10.825 20.5091 10.7355C20.4683 10.646 20.4087 10.5659 20.3343 10.5004L12.4771 3.57989Z" stroke="white"/>
</svg>
