<svg width="24" height="24" viewBox="0 0 24 24" fill="none" xmlns="http://www.w3.org/2000/svg">
<g clip-path="url(#clip0_57:7652)">
<path d="M8.71244 0H2.00823C1.08681 0 0.279297 0.711703 0.279297 1.63341V8.33761C0.279297 9.25931 1.08681 10.0465 2.00823 10.0465H8.71244C9.63386 10.0465 10.3258 9.25927 10.3258 8.33761V1.63341C10.3258 0.711703 9.63386 0 8.71244 0ZM9.20955 8.33761C9.20955 8.64338 9.01848 8.93025 8.71244 8.93025H2.00823C1.70219 8.93025 1.39558 8.64342 1.39558 8.33761V1.63341C1.39558 1.32759 1.70219 1.11628 2.00823 1.11628H8.71244C9.01848 1.11628 9.20955 1.32764 9.20955 1.63341V8.33761Z" fill="white" fill-opacity="0.5"/>
<path d="M8.71244 -0.1H2.00823C1.03911 -0.1 0.179297 0.649234 0.179297 1.63341V8.33761C0.179297 9.31605 1.0331 10.1465 2.00823 10.1465H8.71244C9.69642 10.1465 10.4258 9.30686 10.4258 8.33761V1.63341C10.4258 0.658093 9.69069 -0.1 8.71244 -0.1ZM9.10955 8.33761C9.10955 8.61238 8.9418 8.83025 8.71244 8.83025H2.00823C1.88562 8.83025 1.75623 8.77198 1.65627 8.67635C1.55629 8.5807 1.49558 8.45724 1.49558 8.33761V1.63341C1.49558 1.51671 1.55345 1.41445 1.64925 1.33854C1.74593 1.26193 1.87704 1.21628 2.00823 1.21628H8.71244C8.84144 1.21628 8.93821 1.26019 9.00307 1.32885C9.06855 1.39817 9.10955 1.50132 9.10955 1.63341V8.33761Z" stroke="white" stroke-opacity="0.5" stroke-width="0.2"/>
<path d="M8.71244 13.9534H2.00823C1.08681 13.9534 0.279297 14.6651 0.279297 15.5868V22.291C0.279297 23.2127 1.08681 23.9999 2.00823 23.9999H8.71244C9.63386 23.9999 10.3258 23.2127 10.3258 22.291V15.5868C10.3258 14.6651 9.63386 13.9534 8.71244 13.9534ZM9.20955 22.291C9.20955 22.5968 9.01848 22.8837 8.71244 22.8837H2.00823C1.70219 22.8837 1.39558 22.5968 1.39558 22.291V15.5868C1.39558 15.281 1.70219 15.0697 2.00823 15.0697H8.71244C9.01848 15.0697 9.20955 15.2811 9.20955 15.5868V22.291Z" fill="white" fill-opacity="0.5"/>
<path d="M8.71244 13.8534H2.00823C1.03911 13.8534 0.179297 14.6026 0.179297 15.5868V22.291C0.179297 23.2694 1.0331 24.0999 2.00823 24.0999H8.71244C9.69642 24.0999 10.4258 23.2603 10.4258 22.291V15.5868C10.4258 14.6115 9.6907 13.8534 8.71244 13.8534ZM9.10955 22.291C9.10955 22.5658 8.9418 22.7837 8.71244 22.7837H2.00823C1.88562 22.7837 1.75623 22.7254 1.65627 22.6298C1.55629 22.5341 1.49558 22.4107 1.49558 22.291V15.5868C1.49558 15.4701 1.55345 15.3679 1.64924 15.292C1.74593 15.2153 1.87704 15.1697 2.00823 15.1697H8.71244C8.84144 15.1697 8.93821 15.2136 9.00307 15.2823C9.06855 15.3516 9.10955 15.4547 9.10955 15.5868V22.291Z" stroke="white" stroke-opacity="0.5" stroke-width="0.2"/>
<path d="M22.1079 0H15.4037C14.4823 0 13.6748 0.711703 13.6748 1.63341V8.33761C13.6748 9.25931 14.4823 10.0465 15.4037 10.0465H22.1079C23.0294 10.0465 23.7213 9.25927 23.7213 8.33761V1.63341C23.7213 0.711703 23.0294 0 22.1079 0ZM22.6051 8.33761C22.6051 8.64338 22.414 8.93025 22.1079 8.93025H15.4037C15.0977 8.93025 14.7911 8.64342 14.7911 8.33761V1.63341C14.7911 1.32759 15.0977 1.11628 15.4037 1.11628H22.1079C22.414 1.11628 22.6051 1.32764 22.6051 1.63341V8.33761Z" fill="white" fill-opacity="0.5"/>
<path d="M22.1079 -0.1H15.4037C14.4346 -0.1 13.5748 0.649234 13.5748 1.63341V8.33761C13.5748 9.31605 14.4286 10.1465 15.4037 10.1465H22.1079C23.0919 10.1465 23.8213 9.30686 23.8213 8.33761V1.63341C23.8213 0.658093 23.0862 -0.1 22.1079 -0.1ZM22.5051 8.33761C22.5051 8.61239 22.3373 8.83025 22.1079 8.83025H15.4037C15.2811 8.83025 15.1517 8.77198 15.0518 8.67635C14.9518 8.5807 14.8911 8.45724 14.8911 8.33761V1.63341C14.8911 1.51671 14.949 1.41445 15.0448 1.33854C15.1414 1.26193 15.2726 1.21628 15.4037 1.21628H22.1079C22.237 1.21628 22.3337 1.26019 22.3986 1.32885C22.4641 1.39817 22.5051 1.50132 22.5051 1.63341V8.33761Z" stroke="white" stroke-opacity="0.5" stroke-width="0.2"/>
<path d="M22.1079 13.9534H15.4037C14.4823 13.9534 13.6748 14.6651 13.6748 15.5868V22.291C13.6748 23.2127 14.4823 23.9999 15.4037 23.9999H22.1079C23.0294 23.9999 23.7213 23.2126 23.7213 22.291V15.5868C23.7213 14.6651 23.0294 13.9534 22.1079 13.9534ZM22.6051 22.291C22.6051 22.5968 22.414 22.8837 22.1079 22.8837H15.4037C15.0977 22.8837 14.7911 22.5968 14.7911 22.291V15.5868C14.7911 15.281 15.0977 15.0697 15.4037 15.0697H22.1079C22.414 15.0697 22.6051 15.2811 22.6051 15.5868V22.291Z" fill="white" fill-opacity="0.5"/>
<path d="M22.1079 13.8534H15.4037C14.4346 13.8534 13.5748 14.6026 13.5748 15.5868V22.291C13.5748 23.2694 14.4286 24.0999 15.4037 24.0999H22.1079C23.0919 24.0999 23.8213 23.2602 23.8213 22.291V15.5868C23.8213 14.6115 23.0862 13.8534 22.1079 13.8534ZM22.5051 22.291C22.5051 22.5658 22.3373 22.7837 22.1079 22.7837H15.4037C15.2811 22.7837 15.1517 22.7254 15.0518 22.6298C14.9518 22.5341 14.8911 22.4107 14.8911 22.291V15.5868C14.8911 15.4701 14.949 15.3679 15.0448 15.292C15.1414 15.2153 15.2726 15.1697 15.4037 15.1697H22.1079C22.237 15.1697 22.3337 15.2136 22.3986 15.2823C22.4641 15.3516 22.5051 15.4547 22.5051 15.5868V22.291Z" stroke="white" stroke-opacity="0.5" stroke-width="0.2"/>
</g>
<defs>
<clipPath id="clip0_57:7652">
<rect width="24" height="24" fill="white"/>
</clipPath>
</defs>
</svg>
