<svg width="24" height="24" viewBox="0 0 24 24" fill="none" xmlns="http://www.w3.org/2000/svg">
<path d="M20.4844 2.8125H14.5781C14.5008 2.8125 14.4375 2.87578 14.4375 2.95312V4.26562C14.4375 4.34297 14.5008 4.40625 14.5781 4.40625H18.3375L13.6664 9.07734C12.4945 8.175 11.0648 7.6875 9.5625 7.6875C7.76016 7.6875 6.06328 8.39062 4.79062 9.66562C3.51797 10.9406 2.8125 12.6352 2.8125 14.4375C2.8125 16.2398 3.51562 17.9367 4.79062 19.2094C6.06328 20.4844 7.76016 21.1875 9.5625 21.1875C11.3648 21.1875 13.0617 20.4844 14.3344 19.2094C15.6094 17.9367 16.3125 16.2398 16.3125 14.4375C16.3125 12.9352 15.825 11.5102 14.925 10.3383L19.5938 5.66953V9.42188C19.5938 9.49922 19.657 9.5625 19.7344 9.5625H21.0469C21.1242 9.5625 21.1875 9.49922 21.1875 9.42188V3.51562C21.1875 3.12891 20.8711 2.8125 20.4844 2.8125ZM9.5625 19.4062C6.82266 19.4062 4.59375 17.1773 4.59375 14.4375C4.59375 11.6977 6.82266 9.46875 9.5625 9.46875C12.3023 9.46875 14.5312 11.6977 14.5312 14.4375C14.5312 17.1773 12.3023 19.4062 9.5625 19.4062Z" fill="#FE7317"/>
</svg>
