<svg width="24" height="24" viewBox="0 0 24 24" fill="none" xmlns="http://www.w3.org/2000/svg">
<g clip-path="url(#clip0_57:7650)">
<path d="M23.2537 0.746625C22.772 0.264938 22.1311 0 21.4491 0C21.4488 0 21.4488 0 21.4488 0C20.7663 0 20.1249 0.265219 19.643 0.747281L16.006 4.38394L4.15673 1.42167C3.98325 1.37906 3.7988 1.42917 3.67186 1.55602L1.86708 3.3608C1.74942 3.47822 1.69659 3.64575 1.725 3.80953C1.75369 3.97331 1.86009 4.11291 2.0107 4.18369L11.6635 8.72639L7.35811 13.0318L1.6103 13.8689C1.50136 13.8848 1.40062 13.9354 1.32286 14.0132L0.149483 15.1863C0.022358 15.3135 -0.0285014 15.4982 0.015608 15.6724C0.0597174 15.8469 0.192374 15.9853 0.364592 16.0366L5.38317 17.5321L6.35714 18.5058L7.96552 23.642C8.01886 23.8125 8.15747 23.9427 8.33072 23.9853C8.37113 23.9953 8.412 24 8.45264 24C8.58652 24 8.71687 23.9474 8.81362 23.8504L9.98677 22.677C10.0645 22.5993 10.1152 22.4985 10.1311 22.3896L10.9682 16.6419L15.2444 12.3654L19.4523 21.6221C19.5217 21.7747 19.6612 21.8833 19.826 21.9133C19.9896 21.9429 20.1598 21.8903 20.278 21.7719L22.083 19.9668C22.2075 19.8424 22.2591 19.6627 22.2196 19.491L19.5758 8.03437L23.253 4.35708C24.2485 3.36141 24.249 1.74169 23.2537 0.746625ZM22.5309 3.63502L18.6536 7.51238C18.5292 7.63678 18.4776 7.8165 18.517 7.98825L21.1609 19.4448L20.077 20.529L15.8691 11.2723C15.7997 11.1197 15.6602 11.0111 15.4954 10.9811C15.3314 10.9512 15.1616 11.004 15.0434 11.1225L10.1263 16.0396C10.0485 16.1174 9.99792 16.2181 9.98198 16.327L9.14489 22.0748L8.68795 22.5322L7.29394 18.081C7.26952 18.0025 7.22616 17.931 7.1678 17.8726L6.01387 16.7187C5.95406 16.6586 5.88 16.6145 5.79876 16.5903L1.47717 15.3027L1.92487 14.855L7.67287 14.0179C7.78181 14.002 7.88255 13.9514 7.96031 13.8736L12.8991 8.9348C13.0168 8.81737 13.0696 8.64989 13.0412 8.48611C13.0125 8.32233 12.9058 8.18273 12.7555 8.11195L3.10275 3.5692L4.1894 2.48231L16.0386 5.44458C16.2131 5.48822 16.3966 5.43736 16.5235 5.31023L20.3649 1.46902C20.6541 1.17984 21.039 1.02056 21.4488 1.02056C21.8584 1.02056 22.243 1.17961 22.5317 1.46827C23.1287 2.0655 23.1285 3.03745 22.5309 3.63502Z" fill="white" fill-opacity="0.5"/>
<path d="M4.16866 1.37311L4.16886 1.37316L15.9906 4.32857L19.6077 0.711933C20.0989 0.220464 20.7531 -0.05 21.4488 -0.05H21.4488H21.4489H21.4489H21.4489H21.4489H21.4489H21.4489H21.449H21.449H21.449H21.449H21.449H21.449H21.449H21.4491C22.1443 -0.05 22.798 0.22018 23.289 0.711271C24.3039 1.72587 24.3034 3.37725 23.2883 4.39243L19.6307 8.05013L22.2684 19.4797L22.2684 19.4798C22.3116 19.6683 22.255 19.8656 22.1184 20.0022L20.3134 21.8072L20.3133 21.8072L20.278 21.7719C20.1598 21.8903 19.9896 21.9429 19.826 21.9133C19.6612 21.8833 19.5217 21.7747 19.4523 21.6221L4.16866 1.37311ZM4.16866 1.37311C3.97843 1.32639 3.77599 1.38127 3.63652 1.52065L3.6365 1.52066M4.16866 1.37311L3.6365 1.52066M3.6365 1.52066L1.83176 3.32541M3.6365 1.52066L1.67575 3.81816M1.67575 3.81816L1.67573 3.81808C1.64456 3.63833 1.70252 3.45438 1.83176 3.32541M1.67575 3.81816C1.70724 3.99794 1.82406 4.15122 1.98944 4.22894L11.5778 8.74134M1.67575 3.81816L3.67186 1.55602L1.86708 3.3608M1.83176 3.32541L1.86708 3.3608M1.83176 3.32541L1.83172 3.32544L1.86708 3.3608M1.86708 3.3608C1.74942 3.47822 1.69659 3.64575 1.725 3.80953C1.75369 3.97331 1.86009 4.11291 2.0107 4.18369L11.6154 8.70376L11.5778 8.74134M11.5778 8.74134L7.33448 12.9847L1.60309 13.8194L1.60306 13.8194C1.48347 13.8369 1.37287 13.8925 1.2875 13.9778L0.114131 15.151L0.114128 15.151C-0.0254495 15.2906 -0.0812921 15.4934 -0.0328675 15.6847C-0.032866 15.6847 -0.0328644 15.6847 -0.0328628 15.6847L0.015608 15.6724C0.0597174 15.8469 0.192374 15.9853 0.364592 16.0366L5.38317 17.5321M11.5778 8.74134L6.3131 18.5325M5.38317 17.5321L5.34782 17.5675L5.35677 17.5764L5.36889 17.58L5.38317 17.5321ZM5.38317 17.5321L6.35714 18.5058M6.35714 18.5058L6.30942 18.5207L6.3131 18.5325M6.35714 18.5058L6.32179 18.5411L6.3131 18.5325M6.35714 18.5058L7.96552 23.642L6.3131 18.5325M6.3131 18.5325L7.9178 23.657C7.97636 23.8441 8.12852 23.987 8.31872 24.0338M6.3131 18.5325L8.31872 24.0338M8.31872 24.0338C8.3632 24.0448 8.40811 24.05 8.45264 24.05C8.59957 24.05 8.74271 23.9923 8.84898 23.8858L8.31872 24.0338ZM18.4683 7.99949L18.4683 7.99944C18.425 7.81093 18.4816 7.61362 18.6182 7.47702L22.4956 3.59966C23.0736 3.02161 23.0738 2.08131 22.4963 1.50362C22.2171 1.22437 21.8452 1.07056 21.4488 1.07056C21.0522 1.07056 20.6801 1.2246 20.4003 1.50437L16.5589 5.34556L18.4683 7.99949ZM18.4683 7.99949L21.1059 19.4291L20.0926 20.4426M18.4683 7.99949L20.0926 20.4426M9.93251 16.3198L9.93251 16.3198C9.95001 16.2002 10.0056 16.0896 10.091 16.0042L15.008 11.0871L15.008 11.0871L15.0434 11.1225L9.93251 16.3198ZM9.93251 16.3198L9.0978 22.0511L8.71097 22.4384L7.34168 18.0661C7.34167 18.0661 7.34166 18.0661 7.34165 18.0661C7.3148 17.9798 7.26717 17.9013 7.20315 17.8372L6.04931 16.6834C5.98358 16.6174 5.90222 16.5689 5.81303 16.5424L1.57185 15.2788L1.9485 14.9021L7.68008 14.0674L7.68011 14.0674M9.93251 16.3198L7.68011 14.0674M20.0926 20.4426L15.9146 11.2516L20.0926 20.4426ZM7.68011 14.0674C7.7997 14.0499 7.9103 13.9943 7.99567 13.9089L12.9344 8.97019M7.68011 14.0674L13.0904 8.47748M13.0904 8.47748L13.0904 8.47755C13.1217 8.65732 13.0637 8.84122 12.9344 8.97019M13.0904 8.47748C13.0589 8.29766 12.9418 8.14442 12.7768 8.06672L12.7768 8.06671M13.0904 8.47748L12.7768 8.06671M12.9344 8.97019L12.8991 8.9348L12.9345 8.97015L12.9344 8.97019ZM12.7768 8.06671L3.1884 3.55425M12.7768 8.06671L3.1884 3.55425M3.1884 3.55425L4.20475 2.53769L16.0265 5.49309C16.218 5.54098 16.4195 5.48515 16.5588 5.34559L3.1884 3.55425ZM11.0153 16.6655L15.2287 12.4518L8.84902 23.8857L10.0221 22.7124C10.1075 22.627 10.1631 22.5164 10.1806 22.3968L10.1806 22.3968L11.0153 16.6655Z" stroke="white" stroke-opacity="0.5" stroke-width="0.1"/>
</g>
<defs>
<clipPath id="clip0_57:7650">
<rect width="24" height="24" fill="white"/>
</clipPath>
</defs>
</svg>
