<svg width="24" height="24" viewBox="0 0 24 24" fill="none" xmlns="http://www.w3.org/2000/svg">
<path d="M21.6748 14.6649L20.1397 13.3524C20.2123 12.9071 20.2498 12.4524 20.2498 11.9978C20.2498 11.5431 20.2123 11.0884 20.1397 10.6431L21.6748 9.33057C21.7906 9.23144 21.8735 9.09942 21.9124 8.95205C21.9513 8.80468 21.9445 8.64895 21.8928 8.50557L21.8717 8.44463C21.4491 7.26344 20.8162 6.16846 20.0037 5.2126L19.9615 5.16338C19.863 5.04749 19.7316 4.96418 19.5847 4.92443C19.4379 4.88468 19.2824 4.89036 19.1389 4.94072L17.2334 5.61807C16.5303 5.0415 15.7451 4.58682 14.8967 4.26807L14.5287 2.27588C14.501 2.12598 14.4282 1.98807 14.3202 1.88048C14.2122 1.77289 14.074 1.70071 13.924 1.67354L13.8607 1.66182C12.6397 1.4415 11.3553 1.4415 10.1342 1.66182L10.0709 1.67354C9.9209 1.70071 9.78271 1.77289 9.6747 1.88048C9.56669 1.98807 9.49398 2.12598 9.46622 2.27588L9.0959 4.27744C8.25424 4.59626 7.47043 5.0507 6.77559 5.62275L4.85606 4.94072C4.71254 4.88996 4.55698 4.88408 4.41003 4.92385C4.26309 4.96362 4.13173 5.04716 4.0334 5.16338L3.99122 5.2126C3.17968 6.16914 2.54694 7.26393 2.12325 8.44463L2.10215 8.50557C1.99668 8.79853 2.0834 9.12666 2.32012 9.33057L3.87403 10.6571C3.80137 11.0978 3.76622 11.5478 3.76622 11.9954C3.76622 12.4454 3.80137 12.8954 3.87403 13.3337L2.32012 14.6603C2.20433 14.7594 2.12146 14.8914 2.08252 15.0388C2.04359 15.1861 2.05043 15.3419 2.10215 15.4853L2.12325 15.5462C2.54747 16.7274 3.17559 17.8173 3.99122 18.7782L4.0334 18.8274C4.13197 18.9433 4.26333 19.0266 4.41019 19.0664C4.55704 19.1061 4.7125 19.1005 4.85606 19.0501L6.77559 18.3681C7.47403 18.9423 8.2545 19.397 9.0959 19.7134L9.46622 21.7149C9.49398 21.8648 9.56669 22.0027 9.6747 22.1103C9.78271 22.2179 9.9209 22.2901 10.0709 22.3173L10.1342 22.329C11.3665 22.5505 12.6284 22.5505 13.8607 22.329L13.924 22.3173C14.074 22.2901 14.2122 22.2179 14.3202 22.1103C14.4282 22.0027 14.501 21.8648 14.5287 21.7149L14.8967 19.7228C15.7448 19.4048 16.5344 18.9487 17.2334 18.3728L19.1389 19.0501C19.2824 19.1009 19.438 19.1067 19.5849 19.067C19.7318 19.0272 19.8632 18.9437 19.9615 18.8274L20.0037 18.7782C20.8193 17.8149 21.4475 16.7274 21.8717 15.5462L21.8928 15.4853C21.9982 15.197 21.9115 14.8688 21.6748 14.6649ZM18.4756 10.9196C18.5342 11.2735 18.5647 11.6368 18.5647 12.0001C18.5647 12.3634 18.5342 12.7267 18.4756 13.0806L18.3209 14.0204L20.0717 15.5181C19.8063 16.1295 19.4712 16.7083 19.0732 17.2431L16.8982 16.472L16.1623 17.0767C15.6022 17.536 14.9787 17.897 14.3037 18.1501L13.4107 18.4853L12.9912 20.7587C12.3293 20.8337 11.661 20.8337 10.999 20.7587L10.5795 18.4806L9.69356 18.1407C9.02559 17.8876 8.4045 17.5267 7.84903 17.0696L7.11309 16.4626L4.92403 17.2407C4.52559 16.704 4.19278 16.1251 3.92559 15.5157L5.69512 14.004L5.54278 13.0665C5.48653 12.7173 5.45606 12.3563 5.45606 12.0001C5.45606 11.6415 5.48418 11.2829 5.54278 10.9337L5.69512 9.99619L3.92559 8.48447C4.19043 7.87275 4.52559 7.29619 4.92403 6.75947L7.11309 7.5376L7.84903 6.93057C8.4045 6.47354 9.02559 6.1126 9.69356 5.85947L10.5818 5.52432L11.0014 3.24619C11.66 3.17119 12.3326 3.17119 12.9936 3.24619L13.4131 5.51963L14.3061 5.85478C14.9787 6.10791 15.6045 6.46885 16.1647 6.92822L16.9006 7.53291L19.0756 6.76182C19.474 7.29853 19.8068 7.87744 20.074 8.48682L18.3232 9.98447L18.4756 10.9196ZM11.9998 7.64072C9.72168 7.64072 7.87481 9.4876 7.87481 11.7657C7.87481 14.0438 9.72168 15.8907 11.9998 15.8907C14.2779 15.8907 16.1248 14.0438 16.1248 11.7657C16.1248 9.4876 14.2779 7.64072 11.9998 7.64072ZM13.8561 13.622C13.6126 13.8661 13.3233 14.0598 13.0047 14.1917C12.6861 14.3236 12.3446 14.3913 11.9998 14.3907C11.299 14.3907 10.6404 14.1165 10.1436 13.622C9.8994 13.3785 9.70578 13.0892 9.57385 12.7706C9.44192 12.452 9.37427 12.1105 9.37481 11.7657C9.37481 11.0649 9.64903 10.4063 10.1436 9.90947C10.6404 9.4126 11.299 9.14072 11.9998 9.14072C12.7006 9.14072 13.3592 9.4126 13.8561 9.90947C14.1002 10.1529 14.2938 10.4423 14.4258 10.7608C14.5577 11.0794 14.6253 11.4209 14.6248 11.7657C14.6248 12.4665 14.3506 13.1251 13.8561 13.622Z" fill="white" fill-opacity="0.5"/>
</svg>
